<?xml version="1.0" encoding="UTF-8" standalone="no"?>
<!--part of the matt icon theme by sixsixfive released under CC0 (https://creativecommons.org/publicdomain/zero/1.0/) on openclipart-->
<svg xmlns="http://www.w3.org/2000/svg" xmlns:xlink="http://www.w3.org/1999/xlink" viewBox="0 0 128 128">
 <defs id="0">
  <linearGradient id="J">
   <stop id="p" stop-color="#ae1010"/>
   <stop id="q" offset="1" stop-color="#800c0c"/>
  </linearGradient>
  <linearGradient id="K">
   <stop id="r" stop-color="#eee"/>
   <stop id="s" offset="1" stop-color="#eee" stop-opacity="0"/>
  </linearGradient>
  <linearGradient id="L">
   <stop id="t"/>
   <stop id="u" offset="0.5" stop-color="#fff"/>
   <stop id="v" offset="1"/>
  </linearGradient>
  <linearGradient id="M">
   <stop id="w" stop-color="#a3a3a3"/>
   <stop id="x" offset="1" stop-color="#bbb"/>
  </linearGradient>
  <linearGradient id="N">
   <stop id="y" stop-color="#eee"/>
   <stop id="z" offset="1" stop-color="#e4e4e4"/>
  </linearGradient>
  <linearGradient id="O">
   <stop id="10" stop-color="#eee"/>
   <stop id="11" offset="1" stop-color="#acacac"/>
  </linearGradient>
  <linearGradient id="P">
   <stop id="12"/>
   <stop id="13" offset="1" stop-opacity="0"/>
  </linearGradient>
  <linearGradient id="Q">
   <stop id="14" stop-color="#b3925d"/>
   <stop id="15" offset="1" stop-color="#c29e64"/>
  </linearGradient>
  <filter x="-0.021" y="-0.892" width="1.041" height="2.784" color-interpolation-filters="sRGB" id="R">
   <feGaussianBlur stdDeviation="0.40655" id="16"/>
  </filter>
  <filter color-interpolation-filters="sRGB" id="S">
   <feGaussianBlur stdDeviation="0.24411" id="17"/>
  </filter>
  <filter color-interpolation-filters="sRGB" id="T">
   <feGaussianBlur stdDeviation="0.21741" id="18"/>
  </filter>
  <linearGradient y1="9.188" x2="0" y2="8.094" id="U" xlink:href="#P" gradientUnits="userSpaceOnUse"/>
  <linearGradient x1="44.75" x2="48.09" id="V" xlink:href="#L" gradientUnits="userSpaceOnUse" gradientTransform="matrix(2.3005463,0,0,2.3005463,-9.6101197,-8.9688345)"/>
  <linearGradient x1="15.719" x2="19.06" id="W" xlink:href="#L" gradientUnits="userSpaceOnUse" gradientTransform="matrix(2.3005463,0,0,2.3005463,-9.6101197,-8.9688345)"/>
  <linearGradient y1="5.531" x2="0" y2="15.196" id="X" xlink:href="#M" gradientUnits="userSpaceOnUse" gradientTransform="matrix(2.3005463,0,0,2.3005463,-9.6101197,-8.9688345)"/>
  <radialGradient cx="61.04" cy="2.8" r="46.15" id="Y" xlink:href="#K" gradientUnits="userSpaceOnUse" gradientTransform="matrix(1.464246,0.00670693,-0.00474261,1.035399,-25.494926,0.57017392)"/>
  <radialGradient cx="14.934" cy="9" r="21.932" id="Z" xlink:href="#N" gradientUnits="userSpaceOnUse" gradientTransform="matrix(1.3157034,2.1382621,-1.1890005,0.73160919,15.804448,0.20446019)"/>
  <radialGradient cx="61.06" cy="27.482" r="45.955" id="a" xlink:href="#J" gradientUnits="userSpaceOnUse" gradientTransform="matrix(3.0037487,0.0224543,-0.00773665,1.0349448,-119.29463,-0.41044637)"/>
  <radialGradient cx="61.16" cy="-2.173" r="52.41" id="b" xlink:href="#K" gradientUnits="userSpaceOnUse" gradientTransform="matrix(1.9305878,7.9105502e-4,-4.2984122e-4,1.0490373,-54.069037,0.26033035)"/>
  <linearGradient x1="9.965" y1="49.2" x2="9.968" y2="53.974" id="c" xlink:href="#O" gradientUnits="userSpaceOnUse" gradientTransform="matrix(2.2974054,0,0,2.3005468,-9.4473034,-8.9618454)"/>
  <radialGradient cx="46.775" cy="57.33" r="24.945" id="d" xlink:href="#Q" gradientUnits="userSpaceOnUse" gradientTransform="matrix(0.2883873,-2.2823991,3.3555115,0.423978,-95.49766,204.08506)"/>
  <linearGradient y1="8.707" x2="0" y2="120.54" id="e" xlink:href="#j" gradientUnits="userSpaceOnUse"/>
  <radialGradient cx="60.05" cy="51.39" r="15.03" id="f" xlink:href="#i" gradientUnits="userSpaceOnUse" gradientTransform="matrix(-1.404511,1.1888571,-1,-1.1813958,199.73811,11.750541)"/>
  <radialGradient cx="64.7" cy="-15.174" r="55.27" id="g" xlink:href="#K" gradientUnits="userSpaceOnUse" gradientTransform="matrix(1.5330966,-3.1358239e-8,2.404893e-8,1.1240308,-33.828167,2.9909361)"/>
  <radialGradient cx="63.894" cy="117.35" r="53.91" id="h" xlink:href="#P" gradientUnits="userSpaceOnUse" gradientTransform="matrix(1,0,0,0.08641975,0,107.20963)"/>
  <linearGradient id="i">
   <stop id="19" stop-color="#eee"/>
   <stop id="1A" offset="1" stop-color="#dcdcdc"/>
  </linearGradient>
  <linearGradient id="j">
   <stop id="1B" stop-color="#f0ff80"/>
   <stop id="1C" offset="1" stop-color="#8bb300"/>
  </linearGradient>
 </defs>
 <rect width="49.891" height="47.696" rx="4.065" x="7.08" y="10.171" transform="matrix(2.3005457,0.00165824,-0.00165824,2.3005457,-9.6101197,-8.9688345)" id="1" filter="url(#S)"/>
 <path d="M 11.125,8.09375 C 10.040787,8.0929685 9.0716169,8.5008943 8.34375,9.1875 l 47.28125,0 C 54.904285,8.5317698 53.961881,8.0945111 52.90625,8.09375 l -41.78125,0 z" transform="matrix(2.3909979,0,0,10.660032,-12.576888,-74.628046)" id="2" fill="url(#U)" filter="url(#R)"/>
 <rect width="114.78" height="109.73" rx="9.352" x="6.662" y="14.436" transform="matrix(0.99999974,7.2080414e-4,-7.2080414e-4,0.99999974,0,0)" id="3" fill="#8f6b32"/>
 <rect width="114.78" height="109.73" rx="9.352" x="6.66" y="11.906" transform="matrix(0.99999974,7.208038e-4,-7.208038e-4,0.99999974,0,0)" id="4" fill="url(#d)"/>
 <rect width="43.888" height="43.02" rx="3.576" x="9.965" y="10.923" transform="matrix(2.3005457,0.00170027,-0.00161725,2.3005459,-9.6101197,-8.9688345)" id="5" filter="url(#T)"/>
 <rect width="100.83" height="98.97" rx="8.215" x="13.447" y="16.17" transform="matrix(0.99999973,7.4008061e-4,-7.0202905e-4,0.99999975,0,0)" id="6" fill="url(#c)"/>
 <path d="m 16.009056,14.763827 c -3.652201,-0.0026 -6.5182451,2.859282 -6.5208777,6.511483 l -0.065608,91.02075 c -0.00263,3.65291 2.8455747,6.48394 6.5115087,6.48659 l 96.062221,0.0692 c 3.66593,0.003 6.51822,-2.82429 6.52085,-6.47719 l 0.0656,-91.020754 c 0.003,-3.652199 -2.85929,-6.518245 -6.51148,-6.520877 l -96.062224,-0.06924 z" id="7" fill="none" stroke="url(#b)" stroke-width="2.097"/>
 <rect width="100.87" height="95.12" rx="8.219" x="13.48" y="15.786" transform="matrix(0.99999974,7.208038e-4,-7.208038e-4,0.99999974,0,0)" id="8" fill="url(#a)"/>
 <path d="m 13.442708,49.750096 -0.03817,52.952694 c -0.0033,4.55304 3.657664,8.21927 8.210715,8.22255 l 84.429457,0.0608 c 4.55305,0.003 8.22867,-3.65765 8.23195,-8.21069 l 0.0382,-52.952697 -100.872123,-0.07271 z" id="9" fill="url(#Z)"/>
 <path d="m 36.050305,22.109295 c -4.53e-4,3.138172 -2.545773,5.681291 -5.683946,5.679029 -3.13817,-0.0023 -5.679824,-2.549046 -5.675751,-5.68722 4.53e-4,-3.138172 2.545773,-5.681293 5.683946,-5.679031 3.13817,0.0023 5.679823,2.549048 5.675751,5.687222 z" id="A" fill="#6a0a0a"/>
 <path d="m 21.699347,18.643343 c -3.013217,-0.0022 -5.386133,2.367325 -5.388304,5.380542 l -0.05671,78.674305 c -0.0022,3.01322 2.367322,5.38613 5.380542,5.38831 l 84.401685,0.0608 c 3.01322,0.002 5.38613,-2.36733 5.38831,-5.38054 l 0.0567,-78.674306 c 0.002,-3.013213 -2.36734,-5.386132 -5.38055,-5.388304 L 21.699336,18.64331 z" id="B" fill="none" stroke="url(#Y)" stroke-width="2.097"/>
 <path d="m 102.97035,22.15753 c -4.6e-4,3.138175 -2.54578,5.681294 -5.683948,5.679032 -3.138173,-0.0023 -5.679824,-2.549049 -5.675751,-5.68722 4.53e-4,-3.138175 2.545772,-5.681293 5.683943,-5.679031 3.138176,0.0023 5.679826,2.549046 5.675756,5.687219 z" id="C" fill="#6a0a0a"/>
 <path d="m 30.361873,3.7560625 c -2.121186,0.02957 -3.839886,1.8328791 -3.81028,3.954064 l 0,14.3784155 c -0.02051,1.385031 0.745251,2.607952 1.941086,3.307034 1.195834,0.699079 2.685331,0.769248 3.882172,0.0719 1.196841,-0.697356 1.887713,-1.993869 1.869194,-3.378927 l 0,-14.3784153 C 34.260033,6.6719829 33.899299,5.6410299 33.165664,4.9063357 32.432029,4.1716416 31.400038,3.7415725 30.361873,3.7560625 z m 66.787736,0.071891 c -2.121186,0.029571 -3.839886,1.7609868 -3.810279,3.8821719 l 0,14.3784146 c -0.02058,1.385068 0.673334,2.679809 1.869193,3.378928 1.195854,0.69912 2.685308,0.697393 3.882172,0 1.196865,-0.697394 1.959665,-1.993831 1.941085,-3.378928 l 0,-14.3784146 C 101.04777,6.6719847 100.61514,5.7129222 99.881508,4.9782277 99.147871,4.2435336 98.187772,3.8134664 97.149609,3.8279545 z" id="D" stroke-width="25.562" fill="url(#X)"/>
 <path d="m 61.590211,90.572622 c -3.4e-5,2.089888 -0.348347,3.972951 -1.044938,5.649197 -0.674889,1.654492 -1.698056,3.06951 -3.069506,4.245061 -1.37151,1.17556 -3.080418,2.07899 -5.126728,2.71031 -2.024592,0.60955 -4.386584,0.91432 -7.085987,0.91432 -3.004213,0 -5.540363,-0.38097 -7.608456,-1.1429 -2.046347,-0.76193 -3.733484,-1.76333 -5.061419,-3.004199 -1.306178,-1.262628 -2.296691,-2.688532 -2.971544,-4.277714 -0.653088,-1.589169 -1.077594,-3.200113 -1.273518,-4.83284 l 9.339135,-0.816358 c 0.130606,0.979642 0.370071,1.883077 0.718395,2.710309 0.370071,0.805482 0.859884,1.502107 1.469445,2.089876 0.609533,0.587786 1.349697,1.044946 2.220493,1.371481 0.892535,0.304781 1.937473,0.457167 3.134814,0.45716 2.198704,7e-6 3.907611,-0.544231 5.126728,-1.632715 1.21907,-1.088468 1.828617,-2.753837 1.828643,-4.996111 -2.6e-5,-1.371466 -0.293914,-2.470827 -0.881668,-3.298086 -0.566031,-0.827225 -1.29531,-1.458541 -2.187839,-1.893951 -0.870802,-0.457141 -1.817777,-0.761914 -2.840925,-0.914321 -1.023187,-0.152367 -1.991931,-0.228561 -2.906235,-0.228579 l -3.200123,0 0,-7.412531 3.004198,0 c 0.914303,2.7e-5 1.839508,-0.08705 2.775617,-0.261234 0.95784,-0.174129 1.817735,-0.489787 2.579691,-0.946976 0.761911,-0.457131 1.382343,-1.088448 1.861296,-1.89395 0.478906,-0.827212 0.718371,-1.872149 0.718395,-3.134814 -2.4e-5,-1.893916 -0.533378,-3.374244 -1.600062,-4.440988 -1.044959,-1.088438 -2.579711,-1.632676 -4.604258,-1.632716 -1.893968,4e-5 -3.428718,0.522508 -4.604259,1.567407 -1.153799,1.044975 -1.817769,2.525303 -1.991914,4.440988 l -9.175863,-0.653087 c 0.261231,-2.155148 0.849009,-4.027328 1.763333,-5.616542 0.936085,-1.589136 2.100755,-2.906192 3.494012,-3.951173 1.415011,-1.044893 3.036841,-1.817711 4.865494,-2.318457 1.828627,-0.522423 3.766114,-0.783656 5.812468,-0.783703 2.699402,4.7e-5 5.017857,0.326589 6.95537,0.97963 1.937462,0.65313 3.526638,1.534797 4.76753,2.644999 1.240833,1.110289 2.155153,2.405576 2.742963,3.885864 0.587745,1.480367 0.881633,3.058657 0.881666,4.734876 -3.3e-5,1.349745 -0.195958,2.612377 -0.587777,3.787901 -0.391885,1.153816 -0.990546,2.198753 -1.795988,3.134814 -0.783734,0.914348 -1.796017,1.708936 -3.036851,2.383766 -1.240891,0.653111 -2.710334,1.142925 -4.408333,1.469444 l 0,0.130618 c 1.893925,0.217718 3.537524,0.653109 4.930801,1.306172 1.393221,0.631338 2.536122,1.425926 3.428704,2.383765 0.892519,0.95788 1.556489,2.046356 1.991914,3.265432 0.435356,1.19734 0.653052,2.470858 0.653086,3.820555 m 6.661482,12.767838 0,-6.824751 11.396357,0 0,-31.3808 -11.03716,6.89006 0,-7.216603 11.526975,-7.47784 8.686048,0 0,39.185183 10.547345,0 0,6.824751 -31.119565,0" id="E" fill="#555"/>
 <path d="m 30.013478,45.060141 0,-8.17456 c -1.2e-5,-0.325442 0.0032,-0.660465 0.0095,-1.005068 0.01275,-0.344586 0.02552,-0.660464 0.03829,-0.947637 0.01913,-0.338203 0.03509,-0.666844 0.04786,-0.985924 -0.134021,0.50414 -0.261649,0.982744 -0.382882,1.435812 -0.05106,0.191451 -0.105302,0.389275 -0.162726,0.593469 -0.05744,0.204214 -0.114877,0.402037 -0.172298,0.59347 -0.05106,0.19145 -0.102118,0.370129 -0.153153,0.536036 -0.05106,0.165924 -0.09573,0.309506 -0.134009,0.430743 l -2.431309,7.523659 -2.010138,0 -2.431309,-7.523659 c -0.03829,-0.121237 -0.08296,-0.264819 -0.134009,-0.430743 -0.04468,-0.165907 -0.09572,-0.344586 -0.153153,-0.536036 -0.05105,-0.191433 -0.105302,-0.389256 -0.162725,-0.59347 -0.05744,-0.204194 -0.11487,-0.402018 -0.172299,-0.593469 -0.127631,-0.453068 -0.26164,-0.931672 -0.402026,-1.435812 0.01914,0.370131 0.03828,0.73387 0.05743,1.091217 0.01276,0.306317 0.02552,0.628577 0.03829,0.966781 0.01276,0.338222 0.01914,0.631766 0.01914,0.880631 l 0,8.17456 -2.507886,0 0,-13.487066 3.780973,0 2.412165,7.542802 c 0.06381,0.197828 0.130811,0.440321 0.201013,0.727478 0.07657,0.287167 0.149955,0.564757 0.220159,0.832772 0.07657,0.312692 0.159526,0.638142 0.248874,0.976352 0.08933,-0.331829 0.17548,-0.650898 0.258447,-0.957208 0.03828,-0.134005 0.07657,-0.271205 0.114864,-0.4116 0.03828,-0.140385 0.07657,-0.277586 0.114865,-0.4116 0.03828,-0.134003 0.07657,-0.261631 0.114865,-0.382883 0.03828,-0.121241 0.07338,-0.229724 0.105291,-0.325451 l 2.373876,-7.590662 3.761829,0 0,13.487066 -2.507886,0 m 14.683576,0 -1.19651,-3.445951 -5.140209,0 -1.19651,3.445951 -2.823765,0 4.920051,-13.487066 3.331085,0 4.900907,13.487066 -2.795049,0 M 41.53819,35.612494 c -0.07658,-0.223339 -0.153161,-0.446687 -0.229731,-0.670046 -0.07021,-0.22972 -0.134015,-0.437115 -0.191441,-0.622185 -0.05105,-0.191431 -0.09573,-0.347775 -0.134009,-0.469033 -0.03191,-0.121234 -0.05105,-0.188239 -0.05743,-0.201013 -0.0064,0.01916 -0.02554,0.08936 -0.05743,0.210585 -0.03191,0.121258 -0.07658,0.274412 -0.13401,0.459461 -0.05105,0.18507 -0.114871,0.392465 -0.191441,0.622185 -0.0702,0.223359 -0.143588,0.446707 -0.220157,0.670046 l -1.33052,3.876694 3.876694,0 -1.33052,-3.876694 m 7.791676,9.447647 0,-13.487066 2.823765,0 0,13.487066 -2.823765,0" id="F" fill="#eee"/>
 <path d="m 30.361873,3.7560625 c -2.121186,0.02957 -3.839886,1.8328791 -3.81028,3.954064 l 0,14.3784155 c -0.02051,1.385031 0.745251,2.607952 1.941086,3.307034 1.195834,0.699079 2.685331,0.769248 3.882172,0.0719 1.196841,-0.697356 1.887713,-1.993869 1.869194,-3.378927 l 0,-14.3784153 C 34.260033,6.6719829 33.899299,5.6410299 33.165664,4.9063357 32.432029,4.1716416 31.400038,3.7415725 30.361873,3.7560625 z" id="G" opacity="0.145" stroke-width="25.562" fill="url(#W)"/>
 <path d="m 97.149609,3.8279545 c -2.121186,0.029571 -3.839886,1.7609868 -3.810279,3.882172 l 0,14.3784155 c -0.02058,1.385068 0.673334,2.679809 1.869193,3.378927 1.195854,0.69912 2.685308,0.697392 3.882172,0 1.196865,-0.697395 1.959665,-1.993831 1.941085,-3.378927 l 0,-14.3784155 C 101.04777,6.6719847 100.61514,5.7129222 99.881508,4.9782277 99.147871,4.2435336 98.187772,3.8134664 97.149609,3.8279545 z" id="H" opacity="0.145" stroke-width="25.562" fill="url(#V)"/>
 <g transform="matrix(0.58571262,0,0,0.58571262,54.716369,53.514393)" id="I">
  <path d="m 117.80366,117.35108 a 53.910149,4.6589017 0 1 1 -107.8202997,0 53.910149,4.6589017 0 1 1 107.8202997,0 z" transform="translate(1.2996963,3.4536055)" id="k" opacity="0.443" fill="url(#h)"/>
  <path d="m 122.08898,64.625572 a 56.734097,55.918617 0 1 1 -113.4681952,0 56.734097,55.918617 0 1 1 113.4681952,0 z" transform="matrix(1.0119373,0,0,1.0266947,-2.1350421,-4.4029736)" id="l" fill="url(#e)"/>
  <path d="m 122.08898,64.625572 a 56.734097,55.918617 0 1 1 -113.4681952,0 56.734097,55.918617 0 1 1 113.4681952,0 z" transform="matrix(1.0119373,0,0,1.0266947,-2.1350421,-4.4029736)" id="m" fill="none" stroke="#638000" stroke-width="3.924"/>
  <path d="m 60.3125,32.15625 c -1.863454,0 -3.375,1.511546 -3.375,3.375 l 0,19.34375 -19.34375,0 c -1.863454,0 -3.375,1.511546 -3.375,3.375 l 0,7.40625 c 0,1.863454 1.511546,3.34375 3.375,3.34375 l 19.34375,0 0,19.375 c 0,1.863454 1.511546,3.34375 3.375,3.34375 l 7.375,0 c 1.863454,0 3.375,-1.480296 3.375,-3.34375 l 0,-19.375 19.34375,0 c 1.863454,0 3.375,-1.480296 3.375,-3.34375 l 0,-7.40625 c 0,-1.863454 -1.511546,-3.375 -3.375,-3.375 l -19.34375,0 0,-19.34375 c 0,-1.863454 -1.511546,-3.375 -3.375,-3.375 l -7.375,0 z" id="n" fill="#555"/>
  <g transform="translate(-0.00454736,5.8747942e-4)" id="o">
   <path d="m 65.34375,11.21875 c -29.979853,0 -54.21875,23.915681 -54.21875,53.40625 0,29.490569 24.238897,53.40625 54.21875,53.40625 29.979853,0 54.25,-23.917374 54.25,-53.40625 0,-29.488876 -24.270147,-53.40625 -54.25,-53.40625 z" transform="matrix(1.0119373,0,0,1.0266947,-2.1350421,-4.4029736)" id="1D" fill="none" stroke="url(#g)" stroke-width="2.079"/>
  </g>
 </g>
</svg>
