<?xml version="1.0" encoding="UTF-8" standalone="no"?>
<!-- Created with Inkscape (http://www.inkscape.org/) -->

<svg
   xmlns:dc="http://purl.org/dc/elements/1.1/"
   xmlns:cc="http://creativecommons.org/ns#"
   xmlns:rdf="http://www.w3.org/1999/02/22-rdf-syntax-ns#"
   xmlns:svg="http://www.w3.org/2000/svg"
   xmlns="http://www.w3.org/2000/svg"
   xmlns:sodipodi="http://sodipodi.sourceforge.net/DTD/sodipodi-0.dtd"
   xmlns:inkscape="http://www.inkscape.org/namespaces/inkscape"
   width="307.20618"
   height="307.54263"
   id="svg2"
   version="1.1"
   inkscape:version="0.91 r13725"
   sodipodi:docname="forbidden_used.svg"
   inkscape:export-filename="D:\axd3355\Mes Documents\Mes images\SVG\interdit__érodé.png"
   inkscape:export-xdpi="90"
   inkscape:export-ydpi="90">
  <defs
     id="defs4">
    <filter
       inkscape:collect="always"
       id="filter3844"
       color-interpolation-filters="sRGB">
      <feGaussianBlur
         inkscape:collect="always"
         stdDeviation="4.3009477"
         id="feGaussianBlur3846" />
    </filter>
  </defs>
  <sodipodi:namedview
     id="base"
     pagecolor="#ffffff"
     bordercolor="#666666"
     borderopacity="1.0"
     inkscape:pageopacity="0.0"
     inkscape:pageshadow="2"
     inkscape:zoom="1"
     inkscape:cx="246.099"
     inkscape:cy="66.751259"
     inkscape:document-units="px"
     inkscape:current-layer="layer1"
     showgrid="false"
     inkscape:window-width="825"
     inkscape:window-height="873"
     inkscape:window-x="606"
     inkscape:window-y="163"
     inkscape:window-maximized="0"
     fit-margin-top="0"
     fit-margin-left="0"
     fit-margin-right="0"
     fit-margin-bottom="0" />
  <metadata
     id="metadata7">
    <rdf:RDF>
      <cc:Work
         rdf:about="">
        <dc:format>image/svg+xml</dc:format>
        <dc:type
           rdf:resource="http://purl.org/dc/dcmitype/StillImage" />
        <dc:title></dc:title>
        <cc:license
           rdf:resource="http://creativecommons.org/publicdomain/zero/1.0/" />
      </cc:Work>
      <cc:License
         rdf:about="http://creativecommons.org/publicdomain/zero/1.0/">
        <cc:permits
           rdf:resource="http://creativecommons.org/ns#Reproduction" />
        <cc:permits
           rdf:resource="http://creativecommons.org/ns#Distribution" />
        <cc:permits
           rdf:resource="http://creativecommons.org/ns#DerivativeWorks" />
      </cc:License>
    </rdf:RDF>
  </metadata>
  <g
     inkscape:label="Calque 1"
     inkscape:groupmode="layer"
     id="layer1"
     transform="translate(-242.79846,-198.5196)">
    <path
       d="m 403.9375,206.84375 c -2.26691,-0.0241 -4.57002,0.18508 -6.96875,0.59375 a 4.0004,4.0004 0 0 0 -0.15625,0.0312 4.0004,4.0004 0 0 0 -0.84375,-0.0937 c -17.48249,-0.002 -34.95354,3.2285 -51.28125,9.5 a 4.0004,4.0004 0 0 0 -0.59375,0.28125 4.0004,4.0004 0 0 0 -0.15625,0.0312 c -5.84778,1.64055 -13.2781,4.5041 -18.25,9.25 -0.47507,0.45348 -0.94363,0.95115 -1.375,1.46875 a 4.0004,4.0004 0 0 0 -2.6875,0.3125 c -2.81492,1.40308 -5.20548,2.73339 -7.09375,4.625 -0.41961,0.42036 -0.87135,0.90752 -1.25,1.5 a 4.0004,4.0004 0 0 0 -1.9375,0.75 c -24.7743,18.20722 -43.49598,44.4463 -52.28125,73.96875 a 4.0004,4.0004 0 0 0 0.0312,2.375 c -2.40065,3.29487 -3.39012,7.21747 -3.96875,11.15625 -1.16136,7.90556 -0.71114,16.58524 -1.875,21.1875 a 4.0004,4.0004 0 0 0 -0.125,0.96875 c -0.0394,14.25253 0.0695,30.14292 5.96875,44.28125 -0.29953,0.7025 -0.61087,1.41555 -0.59375,2.375 0.0211,1.18523 0.62936,2.66304 1.59375,3.53125 0.52671,0.47418 1.02844,0.75848 1.53125,0.96875 0.90693,5.93702 3.18714,12.71201 6.375,19.125 3.36393,6.76717 7.51745,12.93573 12.6875,16.71875 -0.098,0.45678 -0.27745,0.89155 -0.28125,1.375 -0.031,3.94461 2.61209,6.85729 6.65625,9.875 3.39072,3.2542 7.98635,8.84059 12.84375,13.59375 4.14651,4.05752 8.56244,7.83532 13.90625,8.53125 0.001,0.10546 -0.0344,0.20681 -0.0312,0.3125 a 4.0004,4.0004 0 0 0 1.75,3.1875 c 20.26115,13.86357 44.13983,22.28306 68.59375,24.28125 a 4.0004,4.0004 0 0 0 2.5625,-0.71875 c 0.8545,0.17718 1.71196,0.4159 2.5625,0.5625 8.12566,1.40058 15.75337,1.66718 21.5,-1.5625 0.86752,0.33892 1.73865,0.64996 2.5625,0.78125 2.13385,0.34004 3.9805,0.1937 5.6875,-0.375 0.73094,-0.24352 1.53672,-0.54612 2.46875,-1.625 1.27237,0.0352 2.49511,0.19983 3.75,0.15625 3.22055,-0.11183 6.29533,-0.45691 9.09375,-1.65625 1.52864,-0.65514 3.03565,-1.85313 4.125,-3.375 1.48294,0.27906 3.01225,0.2558 4.53125,0.125 2.97199,-0.25592 6.079,-1.10592 9.03125,-2.375 2.95225,-1.26908 5.738,-2.94173 7.96875,-5.15625 0.14426,-0.14321 0.23453,-0.35006 0.375,-0.5 0.70861,0.13984 1.39357,0.12515 1.9375,0.0312 1.12293,-0.19385 1.92711,-0.63043 2.65625,-1.15625 0.72914,-0.52582 1.37471,-1.14004 1.90625,-2.0625 0.004,-0.007 -0.004,-0.0239 0,-0.0312 1.57673,-0.0883 3.19826,-0.44318 4.625,-1.6875 0.92248,-0.80453 1.58862,-1.93753 1.9375,-3.1875 0.89506,-0.10107 1.80628,-0.27242 2.71875,-0.53125 A 4.0004,4.0004 0 0 0 477.3125,468 c 13.6652,-9.46494 25.6602,-21.31226 35.3125,-34.84375 A 4.0004,4.0004 0 0 0 513.375,431 c 1.9378,-1.41005 3.53819,-3.15344 4.75,-5.0625 1.3859,-2.18332 2.36785,-4.47647 2.75,-6.84375 0.13588,-0.84175 0.13895,-1.72805 0.0312,-2.65625 2.32572,-1.58616 4.08063,-3.8211 5.4375,-6.1875 3.25125,-5.67023 4.44804,-12.37353 5,-17.625 0.0234,-0.0163 0.0713,-0.0147 0.0937,-0.0312 0.85679,-0.62949 1.27376,-1.28442 1.625,-1.875 1.40497,-2.36231 1.82364,-4.80364 2.375,-7.6875 0.55136,-2.88386 0.97439,-6.00836 1.34375,-8.53125 0.18468,-1.26145 0.35748,-2.34638 0.5,-3.15625 0.14252,-0.80987 0.45076,-1.60056 0.15625,-0.9375 a 4.0004,4.0004 0 0 0 0.21875,-2.59375 4.0004,4.0004 0 0 0 0.40625,-1.375 l 0.1875,-1.65625 a 4.0004,4.0004 0 0 0 -0.0312,-1.1875 4.0004,4.0004 0 0 0 0,-0.0312 c 0.15042,-0.33399 0.35519,-0.64989 0.46875,-1 0.84423,-2.60285 0.22097,-5.14385 -0.8125,-7.34375 0.37262,-0.38335 0.83728,-0.73751 1.03125,-1.15625 1.31268,-2.83372 0.7224,-5.00194 -0.0312,-8.375 -0.1424,-4.57039 -0.47835,-9.111 -1.0625,-13.65625 A 4.0004,4.0004 0 0 0 536.71875,329.75 c 0.20697,-6.38183 -1.38055,-12.89645 -3.34375,-19.09375 a 4.0004,4.0004 0 0 0 -0.90625,-1.53125 4.0004,4.0004 0 0 0 -0.125,-1.90625 c -3.92892,-12.47303 -9.59063,-24.39046 -16.78125,-35.3125 a 4.0004,4.0004 0 0 0 -0.4375,-0.53125 4.0004,4.0004 0 0 0 -0.34375,-0.625 c -3.21303,-4.78125 -6.70289,-9.39051 -10.46875,-13.75 a 4.0004,4.0004 0 0 0 -1.4375,-1.03125 c -0.13423,-0.59281 -0.31375,-1.17993 -0.59375,-1.71875 -1.06668,-2.05264 -2.87993,-3.55308 -5.15625,-5 -0.0208,-0.0207 -0.0417,-0.0418 -0.0625,-0.0625 -4.03245,-4.02756 -8.31449,-7.83801 -12.8125,-11.375 a 4.0004,4.0004 0 0 0 -2.65625,-0.84375 c -0.70589,-1.20813 -1.6873,-2.23509 -2.65625,-3.125 -1.93789,-1.77983 -4.30276,-3.29625 -6.84375,-4.78125 -5.08197,-2.96999 -10.94002,-5.71108 -14.125,-7.59375 a 4.0004,4.0004 0 0 0 -0.3125,-0.15625 c -6.86506,-3.28351 -13.9898,-6.01721 -21.28125,-8.15625 A 4.0004,4.0004 0 0 0 435,213 c -0.0836,-0.068 -0.16652,-0.19203 -0.25,-0.25 -1.18375,-0.82194 -2.24429,-1.11159 -3.28125,-1.34375 -2.07391,-0.46432 -4.19777,-0.58785 -6.1875,-0.8125 -1.98973,-0.22465 -3.80867,-0.57857 -4.6875,-0.96875 A 4.0004,4.0004 0 0 0 416.6875,210 c -3.73115,-1.96203 -8.03984,-3.10611 -12.75,-3.15625 z m -10.65625,39.34375 c 2.47358,-0.18612 4.76004,-0.16508 6.8125,0.21875 a 4.0004,4.0004 0 0 0 1.5,0 c 1.19709,-0.22865 3.70992,0.0101 6.5,0.59375 2.79008,0.58364 5.84003,1.40751 8.875,1.8125 1.87268,0.24989 3.92874,0.35526 5.90625,-0.15625 0.0453,0.0774 0.0412,0.13719 0.0937,0.21875 0.35824,0.55609 0.90472,1.3657 2.3125,1.875 1.19994,0.4341 2.68078,0.0395 3.65625,-0.5 0.71851,0.72258 1.34787,1.53048 2.21875,2.125 a 4.0004,4.0004 0 0 0 0.0937,0.0625 c 4.30852,2.74191 10.91601,4.56649 15.96875,6.9375 2.52637,1.1855 4.52271,2.53119 5.15625,3.25 0.15838,0.1797 0.10203,0.0836 0.125,0.125 l -18.84375,18.84375 a 4.0004,4.0004 0 0 0 -0.75,1.0625 4.0004,4.0004 0 0 0 -1.75,1.71875 4.0004,4.0004 0 0 0 -1.625,1.59375 4.0004,4.0004 0 0 0 -0.9375,0.6875 l -12.1875,12.1875 a 4.0004,4.0004 0 0 0 -0.46875,0.5625 4.0004,4.0004 0 0 0 -0.0312,0.0625 4.0004,4.0004 0 0 0 -0.46875,0.34375 l -27.125,27.125 a 4.0004,4.0004 0 0 0 -0.375,0.46875 4.0004,4.0004 0 0 0 -0.40625,0.3125 l -21.6875,21.6875 a 4.0004,4.0004 0 0 0 -0.34375,0.4375 4.0004,4.0004 0 0 0 -0.0312,0 4.0004,4.0004 0 0 0 -0.40625,0.34375 l -11.28125,11.28125 a 4.0004,4.0004 0 0 0 -0.4375,0.53125 4.0004,4.0004 0 0 0 -0.0625,0.0625 4.0004,4.0004 0 0 0 -0.40625,0.3125 l -18.8125,18.8125 a 4.0004,4.0004 0 0 0 -0.3125,0.40625 4.0004,4.0004 0 0 0 -0.0625,0.0312 4.0004,4.0004 0 0 0 -0.3125,0.25 l -24.75,24.75 c -0.37236,-0.63616 -0.65555,-0.92343 -1.03125,-1.625 -1.2118,-2.26288 -2.41168,-4.69124 -3.84375,-6.78125 -0.71603,-1.045 -1.48319,-2.02222 -2.6875,-2.90625 -0.1197,-0.0879 -0.33071,-0.13502 -0.46875,-0.21875 0.15796,-0.92989 0.36423,-1.84967 0.3125,-2.875 -0.15174,-3.00757 -1.45966,-6.1298 -3.9375,-9.09375 a 4.0004,4.0004 0 0 0 -0.0312,-0.0312 c 0.73125,-3.1513 -0.30112,-6.50098 -2.5,-10.15625 0.0576,-1.31611 0.0114,-2.59446 -0.4375,-3.8125 -0.40199,-1.09064 -1.17195,-2.00071 -2,-2.75 0.52458,-0.94354 1.02348,-1.9054 1.28125,-3.03125 0.54237,-2.36889 0.23269,-5.15368 -1.09375,-7.6875 -0.85467,-16.62484 2.28089,-33.46794 9.21875,-48.59375 a 4.0004,4.0004 0 0 0 0.21875,-2.71875 c 3.38052,-2.89529 6.02318,-6.8711 7.90625,-11.75 0.005,-0.007 -0.005,-0.0242 0,-0.0312 6.31139,-9.46434 14.20723,-17.83911 23.25,-24.75 a 4.0004,4.0004 0 0 0 1.15625,-1.4375 c 0.4211,-0.16131 0.82833,-0.372 1.25,-0.53125 a 4.0004,4.0004 0 0 0 2,-1.65625 c 3.01633,-0.10364 5.44228,-1.93412 8,-4.5625 1.73532,-0.68961 3.34672,-1.33053 4.65625,-2.09375 1.39354,-0.81218 2.8598,-1.59866 3.6875,-3.78125 3.46952,0.17008 6.92477,-0.0884 10,-1.8125 0.79001,-0.4429 1.50755,-1.03323 2.1875,-1.65625 0.38493,0.0874 0.77539,0.16369 1.125,0.1875 1.66935,0.11371 3.157,-0.0373 4.90625,-1.4375 0.31792,-0.25448 0.641,-0.65687 0.9375,-1.0625 4.30173,0.48424 8.62389,-0.19302 12.78125,-0.8125 2.69108,-0.40099 5.33892,-0.78263 7.8125,-0.96875 z m 90.09375,47.59375 a 4.0004,4.0004 0 0 0 0.4375,0.375 c 0.53073,0.39401 1.80665,2.16581 2.90625,4.59375 1.0996,2.42794 2.16029,5.4116 3.28125,8.21875 1.12096,2.80715 2.1313,5.42219 4.21875,7.625 0.1083,0.11429 0.28623,0.19914 0.40625,0.3125 -0.0131,0.0427 -0.0509,0.0825 -0.0625,0.125 -0.66532,2.43305 0.10212,4.16439 1.1875,5.59375 0.11266,0.14837 0.27763,0.2897 0.40625,0.4375 -0.35835,3.24545 0.41679,6.81826 2.3125,10.625 l 0.0312,-0.0312 c 0.24972,0.97955 0.50364,1.93689 0.9375,2.8125 a 4.0004,4.0004 0 0 0 -0.34375,2.125 c 0.39466,3.91655 -0.23587,8.21986 1.4375,12.53125 0.24228,0.62424 0.8206,1.20349 1.28125,1.8125 -0.74215,0.84646 -1.51375,1.68371 -2,2.78125 -1.3221,2.98419 -1.41272,6.55148 -0.53125,10.65625 a 4.0004,4.0004 0 0 0 0.0312,0.125 4.0004,4.0004 0 0 0 -0.46875,1.8125 c -0.0173,1.31738 -0.57915,3.87143 -1.3125,6.46875 -0.73335,2.59732 -1.5839,5.28324 -2.0625,7.75 -0.2393,1.23338 -0.46597,2.37588 -0.25,3.875 0.0617,0.42857 0.36312,0.96729 0.5625,1.46875 -0.79527,0.80845 -1.71945,1.58279 -2.40625,2.40625 -1.63231,1.95712 -2.95701,3.93458 -3.71875,6.15625 -0.49285,1.43741 -0.63307,3.23115 -0.1875,4.9375 -1.67393,1.67083 -3.2872,3.42973 -4.75,5.375 -0.0632,0.084 -0.12481,0.1654 -0.1875,0.25 -1.128,1.32423 -2.00433,2.57282 -2.375,4.375 -0.0663,0.32225 0.11116,0.70704 0.125,1.0625 a 4.0004,4.0004 0 0 0 -1.875,0.90625 c -0.92258,0.80415 -1.66793,1.70981 -2.1875,2.9375 -0.44626,0.34534 -0.89757,0.64904 -1.40625,1.625 -0.22125,0.4245 -0.40886,1.09526 -0.4375,1.875 -6.35555,3.90231 -11.98714,9.93003 -16.03125,15.65625 a 4.0004,4.0004 0 0 0 -3.78125,1.84375 c -0.0967,0.15364 -2.03697,1.77581 -4.59375,3.09375 -2.55678,1.31794 -5.64547,2.63952 -8.3125,3.96875 -1.33352,0.66461 -2.55875,1.31621 -3.6875,2.125 -0.60508,0.43356 -1.2358,0.9355 -1.8125,1.625 a 4.0004,4.0004 0 0 0 -1.5625,0.0937 c -2.19262,0.57702 -3.81984,1.13154 -5.375,2.4375 -0.21779,0.18289 -0.41404,0.45318 -0.625,0.6875 a 4.0004,4.0004 0 0 0 -1.5,-0.1875 c -2.61789,0.19584 -4.73106,0.64607 -6.625,1.65625 -0.60786,0.32422 -1.10278,0.85807 -1.625,1.34375 a 4.0004,4.0004 0 0 0 -2.96875,0 c -4.47759,1.7567 -11.83546,1.97992 -18.875,1.90625 -3.51977,-0.0368 -6.96792,-0.11264 -10.09375,0.0312 -2.43437,0.11206 -4.63785,0.43789 -6.75,1.125 -0.46056,-0.48274 -0.88402,-0.98627 -1.5,-1.40625 -0.7044,-0.48027 -1.74875,-0.82006 -2.9375,-0.9375 l 0,-0.0937 c -13.45585,-2.3755 -26.35495,-7.57954 -37.84375,-14.96875 0.28376,-0.27821 0.56317,-0.53025 0.875,-0.96875 0.0757,-0.10651 0.1631,-0.30524 0.25,-0.4375 a 4.0004,4.0004 0 0 0 0.5625,-0.4375 l 21.34375,-21.34375 a 4.0004,4.0004 0 0 0 0.40625,-0.5 4.0004,4.0004 0 0 0 0.40625,-0.3125 l 13.3125,-13.3125 a 4.0004,4.0004 0 0 0 1.03125,-1.78125 c 0.52123,-0.32024 0.96153,-0.52381 1.5625,-0.9375 a 4.0004,4.0004 0 0 0 0.65625,-0.5625 c 1.03471,-1.11239 2.13826,-2.08158 3.21875,-3.09375 1.08049,-1.01217 2.29519,-1.95038 3.0625,-4.0625 0.0136,-0.0374 0.0184,-0.0866 0.0312,-0.125 0.48741,-0.19985 1.04425,-0.34483 1.4375,-0.59375 1.50253,-0.95106 2.57125,-2.11208 3.59375,-3.25 2.04499,-2.27585 4.01528,-4.59781 4.8125,-5.125 a 4.0004,4.0004 0 0 0 0.34375,-0.28125 c 2.45433,-2.05716 5.13351,-4.29227 6.90625,-7.5 a 4.0004,4.0004 0 0 0 1.625,-0.96875 L 426.375,351.125 a 4.0004,4.0004 0 0 0 0.71875,-1.0625 4.0004,4.0004 0 0 0 1.03125,-0.6875 l 37.46875,-37.46875 a 4.0004,4.0004 0 0 0 0.59375,-0.78125 c 0.32336,-0.2026 0.61851,-0.39211 0.84375,-0.59375 0.30851,-0.27619 0.60441,-0.55552 0.90625,-0.96875 0.17687,-0.24214 0.36956,-0.56407 0.5625,-1.03125 0.24624,-0.14629 0.58118,-0.21075 0.8125,-0.375 0.81306,-0.57731 1.54561,-1.26435 2.1875,-2.1875 0.30187,-0.43414 0.61902,-0.94592 0.84375,-1.5625 2.0691,-0.79363 3.73137,-2.5124 5.34375,-4.65625 1.40246,-0.93945 2.3877,-2.02565 3.28125,-3.09375 0.91561,-1.09448 1.70242,-2.06436 2.40625,-2.875 z"
       id="path3830"
       style="fill:#000000;fill-opacity:1;stroke:none;filter:url(#filter3844)"
       inkscape:original="M 403.90625 210.84375 C 401.90787 210.82248 399.81731 211.0015 397.625 211.375 C 387.61266 220.33066 373.51955 231.94271 370.0625 243.40625 C 378.67017 246.01704 390.71066 240.57378 400.84375 242.46875 C 409.92215 240.73477 428.2822 252.63945 424.625 236.1875 C 426.73322 220.57852 417.89488 210.99265 403.90625 210.84375 z M 395.96875 211.375 C 378.97745 211.373 361.98803 214.50073 346.125 220.59375 C 354.91331 224.1649 363.83472 242.68296 370.625 238.125 C 378.30049 228.53885 386.3169 219.04634 395.96875 211.375 z M 418.96875 213.28125 C 423.92888 218.59818 425.18069 236.94748 429.59375 222.28125 C 439.84991 212.77712 425.52125 216.19041 418.96875 213.28125 z M 435.25 217 C 425.18008 224.2464 424.29083 242.8397 433.40625 249.0625 C 439.71123 253.07494 460.98412 257.50898 455.8125 265.125 L 436.5 284.4375 C 445.40449 294.45828 463.90278 287.48093 468.46875 277.3125 C 471.73962 265.20154 473.58739 252.43273 478.625 240.96875 C 479.0205 235.64013 463.00781 229.08558 455.9375 224.90625 C 449.27132 221.71786 442.34058 219.08011 435.25 217 z M 345.03125 221.03125 C 334.17154 224.07786 316.34262 232.89321 330.9375 242.6875 C 341.72661 248.24637 364.58368 256.85037 366.3125 240.3125 C 359.89867 234.08106 352.67442 226.53234 345.03125 221.03125 z M 323.40625 231.8125 C 318.10509 234.45483 314.57692 237.12485 317.40625 238.6875 C 316.24262 238.50715 315.09598 238.30941 313.71875 238.3125 C 289.65029 256.00098 271.43279 281.56574 262.90625 310.21875 C 268.83841 310.09104 271.19437 305.98327 273.03125 301.03125 C 271.58217 306.1556 272.89975 309.83598 280.625 306.65625 C 282.19135 306.71495 283.69245 306.68678 285.125 306.59375 C 277.85505 307.57148 271.55839 309.68428 270.53125 316.15625 C 270.61831 313.9149 270.5975 311.67115 270.8125 309.4375 C 254.87762 310.49084 260.03533 333.24169 257.125 344.75 C 257.0835 359.78051 257.24015 376.12828 263.6875 389.75 C 271.57872 390.29264 281.33699 377.46844 290.46875 373.375 C 291.42698 363.58849 278.6131 372.83104 278.15625 362.40625 C 268.27538 352.34394 271.64387 335.39279 270.28125 322.15625 C 270.25748 320.94546 270.4175 319.74143 270.4375 318.53125 C 270.48228 320.14487 270.68807 321.91864 271.3125 324 C 272.89089 336.89968 268.93156 354.39609 280.5625 363 C 281.14058 373.7736 293.67307 364.45264 288.1875 356.65625 C 287.15763 339.13071 290.46024 321.36739 297.78125 305.40625 C 294.7209 305.70872 291.34485 305.90145 288.0625 306.21875 C 296.76378 304.86399 302.74714 300.08634 306.1875 290.375 C 312.74903 280.53025 320.94441 271.8084 330.34375 264.625 C 314.37886 270.5292 299.2854 278.45833 283.875 285.625 C 280.32451 287.47994 276.08729 293.31838 273.90625 298.5625 C 276.08514 292.13058 278.22878 285.10793 286.25 283.4375 C 301.85897 275.8254 317.55506 268.22204 333.78125 262.09375 C 330.96876 252.04522 329.42902 242.20662 320 239.28125 C 320.91678 239.48604 321.44339 239.7605 322.84375 239.875 C 331.55789 244.57378 323.4283 234.97627 323.40625 231.8125 z M 426.0625 233.625 C 424.11119 238.2996 426.09512 253.43612 428.0625 243.9375 C 427.51129 240.48388 426.87404 237.0276 426.0625 233.625 z M 481.78125 240.96875 C 473.4377 246.98263 474.85378 262.14405 470.78125 271.84375 C 463.89949 288.86595 484.01972 268.26867 490.4375 265.9375 C 497.71341 262.08519 503.81928 257.7231 494.28125 252.09375 C 490.33482 248.14763 486.16874 244.41883 481.78125 240.96875 z M 328.65625 242.875 C 332.54065 250.86976 332.06283 268.01395 343 256.25 C 350.99999 253.1742 353.28593 250.76882 343.5625 248.59375 C 338.59764 246.67314 333.62409 244.78789 328.65625 242.875 z M 368.28125 242.90625 C 361.10108 247.63419 372.01408 247.31853 369.25 244.03125 L 368.28125 242.90625 z M 501.28125 259.625 C 491.28697 269.35088 473.55805 273.35456 467.71875 285.59375 C 462.91175 294.16514 467.1191 307.90951 475 296.8125 C 478.72523 294.90681 483.29367 283.87069 486.1875 290.9375 C 492.6949 295.76852 494.65234 317.89141 501.4375 311.90625 C 504.61762 298.88496 508.30926 285.99499 511.46875 272.96875 C 508.34558 268.32122 504.94163 263.86239 501.28125 259.625 z M 512.21875 274.09375 C 509.00567 287.27323 505.2645 300.31737 502.0625 313.5 C 509.59896 309.83461 526.22665 313.29447 528.53125 308.40625 C 524.71423 296.28847 519.20534 284.70588 512.21875 274.09375 z M 467.4375 282.125 C 458.3526 290.83666 443.31736 292.13367 434.6875 286.25 C 439.53753 291.27895 453.61471 294.41853 461.90625 298.75 C 467.0017 300.23828 465.02957 286.30289 467.4375 282.125 z M 433.03125 287.90625 C 432.33591 290.14193 432.07031 292.12036 432.03125 293.9375 C 431.88602 293.31011 431.80111 292.74852 431.5625 292.03125 L 431.4375 289.5 L 419.25 301.6875 C 426.1277 302.84914 431.97053 302.76181 432.40625 297.4375 C 433.73301 302.27272 438.28907 304.63003 445.90625 303.46875 C 452.3751 305.84822 472.90635 305.6243 458.9375 298.625 C 450.31757 295.01466 441.65137 291.51611 433.03125 287.90625 z M 464.96875 301.03125 C 460.0269 311.62545 475.35168 300.74413 464.96875 301.03125 z M 418.28125 302.65625 L 391.15625 329.78125 C 394.24786 343.15057 398.64012 356.17399 402.46875 369.34375 L 423.53125 348.28125 C 429.29204 333.99296 432.14712 318.59446 431.8125 303.1875 C 427.30698 302.90772 422.79366 302.76705 418.28125 302.65625 z M 432.8125 303.25 C 433.1397 318.0052 430.57149 332.75484 425.28125 346.53125 L 462.75 309.0625 C 458.25424 303.30779 441.82835 305.01801 432.8125 303.25 z M 464.09375 306.8125 C 462.52553 309.53438 466.40883 306.05793 464.09375 306.8125 z M 524.65625 311.4375 C 512.09787 311.03076 493.86985 313.45477 502.0625 329.90625 C 503.50546 338.62615 518.55459 344.88478 525.875 344.375 C 535.37626 336.66822 533.4041 324.00193 529.5625 311.875 L 527.125 311.65625 L 524.65625 311.4375 z M 500.71875 314.84375 C 494.92611 314.83575 501.74298 323.81307 500.71875 314.84375 z M 390.375 330.5625 L 368.6875 352.25 C 376.83721 362.58148 371.57047 379.94525 383.0625 386.5 C 386.85628 387.612 390.48812 380.06075 394.21875 377.59375 C 399.37747 373.26983 404.13399 368.80703 399.21875 361.9375 C 396.0496 351.55022 392.81091 341.15257 390.375 330.5625 z M 533.84375 332.53125 C 530.09115 336.41183 533.02415 345.17838 523.8125 346.5 C 529.88964 349.9611 537.84997 359.56504 534.90625 346.21875 C 534.77623 341.63911 534.42776 337.07539 533.84375 332.53125 z M 503.0625 336.1875 C 503.94176 344.91306 501.88936 353.96773 513.46875 348.65625 C 534.28192 346.78552 506.50557 340.61138 503.0625 336.1875 z M 522.6875 347 C 512.34902 350.11559 500.11157 349.20752 503.1875 363.53125 C 504.49369 366.07232 506.27771 368.34714 508.34375 370.125 C 507.91295 369.82821 507.69783 369.55178 507.21875 369.25 L 504.9375 367.78125 L 502.84375 366.375 C 502.73258 374.82149 492.43295 392.61729 506.75 381.53125 C 507.28432 381.36858 507.65668 381.20151 508.125 381.03125 C 499.2734 386.44259 490.59068 395.70728 493.78125 399.375 C 500.42397 393.18979 516.49445 385.08324 516.15625 377.34375 C 514.96129 377.65411 513.6613 378.15126 512.34375 378.75 C 514.91693 376.37617 513.08837 373.51525 508.65625 370.375 C 514.96642 375.58804 523.72557 376.31239 529.40625 366.84375 C 542.16258 359.70556 530.83143 351.24698 522.6875 347 z M 367.90625 353.03125 L 356.625 364.3125 C 358.41541 369.43119 357.5962 379.07656 358.625 385.21875 C 358.4013 383.87373 358.12852 382.51081 357.4375 380.6875 C 356.91868 375.52838 356.37259 370.3627 355.71875 365.21875 L 336.90625 384.03125 C 344.29594 390.69089 359.57483 397.22111 358.9375 386.75 C 359.5256 389.05001 360.47066 390.65387 362.21875 390.8125 C 359.76085 383.24234 356.8555 366.23894 368.9375 376.96875 C 384.4144 390.97185 369.43458 357.74399 367.90625 353.03125 z M 534.28125 364.34375 C 525.61842 368.83449 528.9386 372.53055 534.09375 366 L 534.28125 364.34375 z M 533.78125 368.78125 C 522.67804 371.31184 515.38056 380.61209 527.0625 387.9375 C 531.02092 395.96817 532.69469 371.22757 533.78125 368.78125 z M 523.0625 373.59375 C 514.99639 376.01555 516.92084 381.64811 523.0625 373.59375 z M 362 374.125 C 359.52345 376.26005 360.54842 390.27579 365.78125 389.75 C 361.53589 392.85886 367.69155 400.90258 369.875 390.84375 C 369.72646 390.31149 370.3697 388.63146 369.21875 388.625 C 368.38286 388.6683 367.8527 388.92946 367.25 389.125 C 367.73108 388.86718 368.18121 388.74242 368.71875 388.25 C 374.66253 388.79836 364.91492 401.91531 371.96875 392.78125 C 382.21512 381.66608 368.68792 378.37893 362 374.125 z M 290.71875 374.4375 C 284.89249 378.79491 267.20028 389.35245 270.25 390.46875 C 279.41121 385.73649 300.57065 390.08419 290.71875 374.4375 z M 518.53125 379.65625 C 509.66423 390.47888 495.81485 396.49099 487.75 407.375 C 479.69334 416.67224 502.08909 410.18699 507.6875 413.15625 C 522.31642 420.41342 526.86115 400.41154 527.65625 390.40625 C 524.86783 386.61267 521.85062 382.99741 518.53125 379.65625 z M 376.84375 383.34375 C 376.03387 389.13352 366.92315 401.64208 377.34375 394.46875 C 382.19246 389.25605 387.20925 387.94809 376.84375 383.34375 z M 336.21875 384.71875 L 307.96875 412.96875 C 302.48124 407.06224 298.19307 388.46648 293.5625 404.28125 C 286.89282 416.14484 306.01407 424.1467 313.9375 416.0625 C 327.90826 408.9908 341.75446 401.69639 355.5625 394.3125 C 348.71955 392.11696 341.72273 389.45837 336.21875 384.71875 z M 293.90625 385.6875 C 286.16056 388.55926 270.06188 389.17433 267.375 393.84375 C 273.6035 400.06811 286.40275 413.16388 291.1875 411.3125 C 290.80949 401.06662 302.19832 395.60634 293.90625 385.6875 z M 262.8125 390.25 C 261.0397 393.82617 267.78164 391.62027 262.8125 390.25 z M 362.5 391.90625 C 354.19858 393.60221 367.512 398.35764 362.5 391.90625 z M 265.21875 393 C 266.1449 404.2544 274.96397 423.65407 284.125 429.375 C 290.06277 425.32634 312.40188 421.70103 296.46875 417.21875 C 291.59689 416.54891 280.95342 407.43455 274.1875 402 C 271.0332 399.17041 268.0468 396.1553 265.21875 393 z M 358.6875 393.78125 C 357.17216 393.85425 359.34885 394.75745 358.6875 393.78125 z M 356.9375 394.71875 C 340.07976 403.49794 323.56702 412.97644 306.21875 420.78125 C 316.18175 423.59214 330.29578 436.10575 338.5625 428.40625 C 344.77877 418.76992 358.38691 412.04558 358.96875 400.40625 C 358.05156 398.74969 360.74522 394.15166 356.9375 394.71875 z M 359.8125 395.53125 C 357.08843 405.52104 364.76996 404.77783 363.84375 396.46875 L 361.90625 396.0625 L 359.8125 395.53125 z M 364.8125 396.65625 C 364.45964 400.47174 368.56752 396.07288 364.8125 396.65625 z M 367.53125 397.09375 C 361.28294 406.10071 373.46599 397.75718 367.53125 397.09375 z M 370.21875 397.34375 C 368.47036 404.11582 357.61485 399.91947 360.875 410.9375 L 374.1875 397.625 L 372.1875 397.5 L 370.21875 397.34375 z M 359.28125 406.9375 C 353.38464 415.37456 337.93076 426.12775 338.71875 433.09375 L 360.0625 411.75 L 359.59375 409.375 L 359.28125 406.9375 z M 486.46875 412.96875 C 485.21968 413.75217 484.90524 414.6317 484.96875 415.53125 C 484.63822 415.16554 484.10125 414.77716 483.03125 414.34375 C 479.24769 417.64163 484.2005 417.75336 485.125 416.53125 C 486.96551 420.25039 496.72543 424.38692 502.1875 426.59375 C 503.10895 427.7532 504.06214 428.48287 505.03125 428.90625 C 497.75148 425.73019 490.57536 422.32352 483.53125 418.65625 C 475.29646 421.55088 465.30937 432.16368 461 439.5625 C 458.69851 450.77118 461.75058 468.48588 475.03125 464.71875 C 488.31355 455.51902 499.99269 443.99674 509.375 430.84375 C 507.98487 430.26567 506.6303 429.60083 505.25 429 C 512.39132 431.75112 519.89224 416.97239 515.9375 415.125 C 506.17418 413.70032 496.31456 413.34472 486.46875 412.96875 z M 480.84375 417.25 C 478.67861 418.95077 484.04133 417.72017 480.84375 417.25 z M 305.03125 421.3125 C 296.36409 426.69324 274.22876 428.75147 289.84375 440.125 C 297.26334 447.24585 307.90056 462.1825 316.21875 461.40625 C 320.71635 451.64131 331.21685 439.67015 333.25 432.375 C 323.4355 429.59933 314.15926 425.84599 305.03125 421.3125 z M 335.8125 433.21875 C 329.27604 442.74734 317.49825 455.76064 317.78125 465.3125 C 337.45554 478.77452 360.68298 486.96521 384.4375 488.90625 C 370.08379 482.88913 353.92849 477.40643 344 464.78125 C 343.01357 459.27757 336.1884 450.2372 334.3125 445.5625 C 335.22325 446.73768 335.3257 446.02112 333.90625 444.3125 C 333.76184 443.64195 333.75515 443.10365 334.0625 442.8125 C 343.55733 460.18797 364.93891 463.38403 381.53125 470.9375 C 385.28904 473.62281 386.00087 471.83499 385.28125 468.78125 C 390.19671 476.40849 399.79845 479.54372 408.375 484.84375 C 416.18938 485.97745 435.92679 488.5203 436 480.65625 C 430.24761 472.52111 424.60549 464.30701 419.34375 455.84375 C 408.13017 460.24319 388.56135 456.14888 382.125 459.34375 C 382.27228 460.84686 382.63572 462.15359 383 463.4375 C 381.11069 459.79797 378.69181 456.37774 377.03125 456.6875 C 361.3742 453.9234 346.34717 447.6477 333.40625 438.40625 C 333.95097 436.83378 341.0141 433.33977 335.8125 433.21875 z M 459.9375 437.40625 C 455.91272 443.79876 429.96618 448.70788 446 452.375 C 452.61678 454.39811 463.25526 464.58882 460.03125 451 C 460.05735 446.46849 460.035 441.93686 459.9375 437.40625 z M 437.625 450.0625 C 422.24133 454.11091 450.9735 460.30961 456.21875 465.96875 C 458.70779 467.53443 459.80214 466.88647 460.0625 465.4375 C 461.07756 471.13019 470.98483 471.94867 469.59375 466.125 C 466.83291 464.13752 463.94834 462.30901 460.90625 460.78125 C 460.33946 461.82672 460.13168 462.74397 460 463.625 C 459.3294 460.29859 456.23053 455.72893 452.15625 456.3125 C 447.56616 453.67038 442.47303 452.14714 437.625 450.0625 z M 339.4375 451.78125 C 342.65985 465.89067 354.28123 474.88015 367 480.34375 C 378.79215 488.22631 402.05158 492.71391 409.84375 487.25 C 403.27539 485.0469 381.99004 480.01687 384.78125 473.40625 C 369.64881 466.30682 352.26292 463.15842 339.4375 451.78125 z M 429.40625 453.125 C 411.11353 454.49342 433.47962 471.15447 436.84375 480.125 C 441.85375 484.1038 460.37354 477.25142 459.78125 469.15625 C 449.84947 463.45571 439.67523 458.18845 429.40625 453.125 z M 460.75 469.75 C 458.12965 477.51848 468.29177 470.19001 460.75 469.75 z M 385.96875 473.9375 C 382.84881 477.63254 407.30322 487.16553 404.5625 483.53125 C 398.42784 480.21436 392.38209 476.70339 385.96875 473.9375 z M 409.75 485.90625 C 414.42491 490.91328 425.19661 485.86685 413.28125 486.1875 L 411.75 486.03125 L 409.75 485.90625 z "
       inkscape:radius="4"
       sodipodi:type="inkscape:offset"
       transform="translate(0,2)" />
    <path
       sodipodi:type="inkscape:offset"
       inkscape:radius="4"
       inkscape:original="M 403.90625 210.84375 C 401.90787 210.82248 399.81731 211.0015 397.625 211.375 C 387.61266 220.33066 373.51955 231.94271 370.0625 243.40625 C 378.67017 246.01704 390.71066 240.57378 400.84375 242.46875 C 409.92215 240.73477 428.2822 252.63945 424.625 236.1875 C 426.73322 220.57852 417.89488 210.99265 403.90625 210.84375 z M 395.96875 211.375 C 378.97745 211.373 361.98803 214.50073 346.125 220.59375 C 354.91331 224.1649 363.83472 242.68296 370.625 238.125 C 378.30049 228.53885 386.3169 219.04634 395.96875 211.375 z M 418.96875 213.28125 C 423.92888 218.59818 425.18069 236.94748 429.59375 222.28125 C 439.84991 212.77712 425.52125 216.19041 418.96875 213.28125 z M 435.25 217 C 425.18008 224.2464 424.29083 242.8397 433.40625 249.0625 C 439.71123 253.07494 460.98412 257.50898 455.8125 265.125 L 436.5 284.4375 C 445.40449 294.45828 463.90278 287.48093 468.46875 277.3125 C 471.73962 265.20154 473.58739 252.43273 478.625 240.96875 C 479.0205 235.64013 463.00781 229.08558 455.9375 224.90625 C 449.27132 221.71786 442.34058 219.08011 435.25 217 z M 345.03125 221.03125 C 334.17154 224.07786 316.34262 232.89321 330.9375 242.6875 C 341.72661 248.24637 364.58368 256.85037 366.3125 240.3125 C 359.89867 234.08106 352.67442 226.53234 345.03125 221.03125 z M 323.40625 231.8125 C 318.10509 234.45483 314.57692 237.12485 317.40625 238.6875 C 316.24262 238.50715 315.09598 238.30941 313.71875 238.3125 C 289.65029 256.00098 271.43279 281.56574 262.90625 310.21875 C 268.83841 310.09104 271.19437 305.98327 273.03125 301.03125 C 271.58217 306.1556 272.89975 309.83598 280.625 306.65625 C 282.19135 306.71495 283.69245 306.68678 285.125 306.59375 C 277.85505 307.57148 271.55839 309.68428 270.53125 316.15625 C 270.61831 313.9149 270.5975 311.67115 270.8125 309.4375 C 254.87762 310.49084 260.03533 333.24169 257.125 344.75 C 257.0835 359.78051 257.24015 376.12828 263.6875 389.75 C 271.57872 390.29264 281.33699 377.46844 290.46875 373.375 C 291.42698 363.58849 278.6131 372.83104 278.15625 362.40625 C 268.27538 352.34394 271.64387 335.39279 270.28125 322.15625 C 270.25748 320.94546 270.4175 319.74143 270.4375 318.53125 C 270.48228 320.14487 270.68807 321.91864 271.3125 324 C 272.89089 336.89968 268.93156 354.39609 280.5625 363 C 281.14058 373.7736 293.67307 364.45264 288.1875 356.65625 C 287.15763 339.13071 290.46024 321.36739 297.78125 305.40625 C 294.7209 305.70872 291.34485 305.90145 288.0625 306.21875 C 296.76378 304.86399 302.74714 300.08634 306.1875 290.375 C 312.74903 280.53025 320.94441 271.8084 330.34375 264.625 C 314.37886 270.5292 299.2854 278.45833 283.875 285.625 C 280.32451 287.47994 276.08729 293.31838 273.90625 298.5625 C 276.08514 292.13058 278.22878 285.10793 286.25 283.4375 C 301.85897 275.8254 317.55506 268.22204 333.78125 262.09375 C 330.96876 252.04522 329.42902 242.20662 320 239.28125 C 320.91678 239.48604 321.44339 239.7605 322.84375 239.875 C 331.55789 244.57378 323.4283 234.97627 323.40625 231.8125 z M 426.0625 233.625 C 424.11119 238.2996 426.09512 253.43612 428.0625 243.9375 C 427.51129 240.48388 426.87404 237.0276 426.0625 233.625 z M 481.78125 240.96875 C 473.4377 246.98263 474.85378 262.14405 470.78125 271.84375 C 463.89949 288.86595 484.01972 268.26867 490.4375 265.9375 C 497.71341 262.08519 503.81928 257.7231 494.28125 252.09375 C 490.33482 248.14763 486.16874 244.41883 481.78125 240.96875 z M 328.65625 242.875 C 332.54065 250.86976 332.06283 268.01395 343 256.25 C 350.99999 253.1742 353.28593 250.76882 343.5625 248.59375 C 338.59764 246.67314 333.62409 244.78789 328.65625 242.875 z M 368.28125 242.90625 C 361.10108 247.63419 372.01408 247.31853 369.25 244.03125 L 368.28125 242.90625 z M 501.28125 259.625 C 491.28697 269.35088 473.55805 273.35456 467.71875 285.59375 C 462.91175 294.16514 467.1191 307.90951 475 296.8125 C 478.72523 294.90681 483.29367 283.87069 486.1875 290.9375 C 492.6949 295.76852 494.65234 317.89141 501.4375 311.90625 C 504.61762 298.88496 508.30926 285.99499 511.46875 272.96875 C 508.34558 268.32122 504.94163 263.86239 501.28125 259.625 z M 512.21875 274.09375 C 509.00567 287.27323 505.2645 300.31737 502.0625 313.5 C 509.59896 309.83461 526.22665 313.29447 528.53125 308.40625 C 524.71423 296.28847 519.20534 284.70588 512.21875 274.09375 z M 467.4375 282.125 C 458.3526 290.83666 443.31736 292.13367 434.6875 286.25 C 439.53753 291.27895 453.61471 294.41853 461.90625 298.75 C 467.0017 300.23828 465.02957 286.30289 467.4375 282.125 z M 433.03125 287.90625 C 432.33591 290.14193 432.07031 292.12036 432.03125 293.9375 C 431.88602 293.31011 431.80111 292.74852 431.5625 292.03125 L 431.4375 289.5 L 419.25 301.6875 C 426.1277 302.84914 431.97053 302.76181 432.40625 297.4375 C 433.73301 302.27272 438.28907 304.63003 445.90625 303.46875 C 452.3751 305.84822 472.90635 305.6243 458.9375 298.625 C 450.31757 295.01466 441.65137 291.51611 433.03125 287.90625 z M 464.96875 301.03125 C 460.0269 311.62545 475.35168 300.74413 464.96875 301.03125 z M 418.28125 302.65625 L 391.15625 329.78125 C 394.24786 343.15057 398.64012 356.17399 402.46875 369.34375 L 423.53125 348.28125 C 429.29204 333.99296 432.14712 318.59446 431.8125 303.1875 C 427.30698 302.90772 422.79366 302.76705 418.28125 302.65625 z M 432.8125 303.25 C 433.1397 318.0052 430.57149 332.75484 425.28125 346.53125 L 462.75 309.0625 C 458.25424 303.30779 441.82835 305.01801 432.8125 303.25 z M 464.09375 306.8125 C 462.52553 309.53438 466.40883 306.05793 464.09375 306.8125 z M 524.65625 311.4375 C 512.09787 311.03076 493.86985 313.45477 502.0625 329.90625 C 503.50546 338.62615 518.55459 344.88478 525.875 344.375 C 535.37626 336.66822 533.4041 324.00193 529.5625 311.875 L 527.125 311.65625 L 524.65625 311.4375 z M 500.71875 314.84375 C 494.92611 314.83575 501.74298 323.81307 500.71875 314.84375 z M 390.375 330.5625 L 368.6875 352.25 C 376.83721 362.58148 371.57047 379.94525 383.0625 386.5 C 386.85628 387.612 390.48812 380.06075 394.21875 377.59375 C 399.37747 373.26983 404.13399 368.80703 399.21875 361.9375 C 396.0496 351.55022 392.81091 341.15257 390.375 330.5625 z M 533.84375 332.53125 C 530.09115 336.41183 533.02415 345.17838 523.8125 346.5 C 529.88964 349.9611 537.84997 359.56504 534.90625 346.21875 C 534.77623 341.63911 534.42776 337.07539 533.84375 332.53125 z M 503.0625 336.1875 C 503.94176 344.91306 501.88936 353.96773 513.46875 348.65625 C 534.28192 346.78552 506.50557 340.61138 503.0625 336.1875 z M 522.6875 347 C 512.34902 350.11559 500.11157 349.20752 503.1875 363.53125 C 504.49369 366.07232 506.27771 368.34714 508.34375 370.125 C 507.91295 369.82821 507.69783 369.55178 507.21875 369.25 L 504.9375 367.78125 L 502.84375 366.375 C 502.73258 374.82149 492.43295 392.61729 506.75 381.53125 C 507.28432 381.36858 507.65668 381.20151 508.125 381.03125 C 499.2734 386.44259 490.59068 395.70728 493.78125 399.375 C 500.42397 393.18979 516.49445 385.08324 516.15625 377.34375 C 514.96129 377.65411 513.6613 378.15126 512.34375 378.75 C 514.91693 376.37617 513.08837 373.51525 508.65625 370.375 C 514.96642 375.58804 523.72557 376.31239 529.40625 366.84375 C 542.16258 359.70556 530.83143 351.24698 522.6875 347 z M 367.90625 353.03125 L 356.625 364.3125 C 358.41541 369.43119 357.5962 379.07656 358.625 385.21875 C 358.4013 383.87373 358.12852 382.51081 357.4375 380.6875 C 356.91868 375.52838 356.37259 370.3627 355.71875 365.21875 L 336.90625 384.03125 C 344.29594 390.69089 359.57483 397.22111 358.9375 386.75 C 359.5256 389.05001 360.47066 390.65387 362.21875 390.8125 C 359.76085 383.24234 356.8555 366.23894 368.9375 376.96875 C 384.4144 390.97185 369.43458 357.74399 367.90625 353.03125 z M 534.28125 364.34375 C 525.61842 368.83449 528.9386 372.53055 534.09375 366 L 534.28125 364.34375 z M 533.78125 368.78125 C 522.67804 371.31184 515.38056 380.61209 527.0625 387.9375 C 531.02092 395.96817 532.69469 371.22757 533.78125 368.78125 z M 523.0625 373.59375 C 514.99639 376.01555 516.92084 381.64811 523.0625 373.59375 z M 362 374.125 C 359.52345 376.26005 360.54842 390.27579 365.78125 389.75 C 361.53589 392.85886 367.69155 400.90258 369.875 390.84375 C 369.72646 390.31149 370.3697 388.63146 369.21875 388.625 C 368.38286 388.6683 367.8527 388.92946 367.25 389.125 C 367.73108 388.86718 368.18121 388.74242 368.71875 388.25 C 374.66253 388.79836 364.91492 401.91531 371.96875 392.78125 C 382.21512 381.66608 368.68792 378.37893 362 374.125 z M 290.71875 374.4375 C 284.89249 378.79491 267.20028 389.35245 270.25 390.46875 C 279.41121 385.73649 300.57065 390.08419 290.71875 374.4375 z M 518.53125 379.65625 C 509.66423 390.47888 495.81485 396.49099 487.75 407.375 C 479.69334 416.67224 502.08909 410.18699 507.6875 413.15625 C 522.31642 420.41342 526.86115 400.41154 527.65625 390.40625 C 524.86783 386.61267 521.85062 382.99741 518.53125 379.65625 z M 376.84375 383.34375 C 376.03387 389.13352 366.92315 401.64208 377.34375 394.46875 C 382.19246 389.25605 387.20925 387.94809 376.84375 383.34375 z M 336.21875 384.71875 L 307.96875 412.96875 C 302.48124 407.06224 298.19307 388.46648 293.5625 404.28125 C 286.89282 416.14484 306.01407 424.1467 313.9375 416.0625 C 327.90826 408.9908 341.75446 401.69639 355.5625 394.3125 C 348.71955 392.11696 341.72273 389.45837 336.21875 384.71875 z M 293.90625 385.6875 C 286.16056 388.55926 270.06188 389.17433 267.375 393.84375 C 273.6035 400.06811 286.40275 413.16388 291.1875 411.3125 C 290.80949 401.06662 302.19832 395.60634 293.90625 385.6875 z M 262.8125 390.25 C 261.0397 393.82617 267.78164 391.62027 262.8125 390.25 z M 362.5 391.90625 C 354.19858 393.60221 367.512 398.35764 362.5 391.90625 z M 265.21875 393 C 266.1449 404.2544 274.96397 423.65407 284.125 429.375 C 290.06277 425.32634 312.40188 421.70103 296.46875 417.21875 C 291.59689 416.54891 280.95342 407.43455 274.1875 402 C 271.0332 399.17041 268.0468 396.1553 265.21875 393 z M 358.6875 393.78125 C 357.17216 393.85425 359.34885 394.75745 358.6875 393.78125 z M 356.9375 394.71875 C 340.07976 403.49794 323.56702 412.97644 306.21875 420.78125 C 316.18175 423.59214 330.29578 436.10575 338.5625 428.40625 C 344.77877 418.76992 358.38691 412.04558 358.96875 400.40625 C 358.05156 398.74969 360.74522 394.15166 356.9375 394.71875 z M 359.8125 395.53125 C 357.08843 405.52104 364.76996 404.77783 363.84375 396.46875 L 361.90625 396.0625 L 359.8125 395.53125 z M 364.8125 396.65625 C 364.45964 400.47174 368.56752 396.07288 364.8125 396.65625 z M 367.53125 397.09375 C 361.28294 406.10071 373.46599 397.75718 367.53125 397.09375 z M 370.21875 397.34375 C 368.47036 404.11582 357.61485 399.91947 360.875 410.9375 L 374.1875 397.625 L 372.1875 397.5 L 370.21875 397.34375 z M 359.28125 406.9375 C 353.38464 415.37456 337.93076 426.12775 338.71875 433.09375 L 360.0625 411.75 L 359.59375 409.375 L 359.28125 406.9375 z M 486.46875 412.96875 C 485.21968 413.75217 484.90524 414.6317 484.96875 415.53125 C 484.63822 415.16554 484.10125 414.77716 483.03125 414.34375 C 479.24769 417.64163 484.2005 417.75336 485.125 416.53125 C 486.96551 420.25039 496.72543 424.38692 502.1875 426.59375 C 503.10895 427.7532 504.06214 428.48287 505.03125 428.90625 C 497.75148 425.73019 490.57536 422.32352 483.53125 418.65625 C 475.29646 421.55088 465.30937 432.16368 461 439.5625 C 458.69851 450.77118 461.75058 468.48588 475.03125 464.71875 C 488.31355 455.51902 499.99269 443.99674 509.375 430.84375 C 507.98487 430.26567 506.6303 429.60083 505.25 429 C 512.39132 431.75112 519.89224 416.97239 515.9375 415.125 C 506.17418 413.70032 496.31456 413.34472 486.46875 412.96875 z M 480.84375 417.25 C 478.67861 418.95077 484.04133 417.72017 480.84375 417.25 z M 305.03125 421.3125 C 296.36409 426.69324 274.22876 428.75147 289.84375 440.125 C 297.26334 447.24585 307.90056 462.1825 316.21875 461.40625 C 320.71635 451.64131 331.21685 439.67015 333.25 432.375 C 323.4355 429.59933 314.15926 425.84599 305.03125 421.3125 z M 335.8125 433.21875 C 329.27604 442.74734 317.49825 455.76064 317.78125 465.3125 C 337.45554 478.77452 360.68298 486.96521 384.4375 488.90625 C 370.08379 482.88913 353.92849 477.40643 344 464.78125 C 343.01357 459.27757 336.1884 450.2372 334.3125 445.5625 C 335.22325 446.73768 335.3257 446.02112 333.90625 444.3125 C 333.76184 443.64195 333.75515 443.10365 334.0625 442.8125 C 343.55733 460.18797 364.93891 463.38403 381.53125 470.9375 C 385.28904 473.62281 386.00087 471.83499 385.28125 468.78125 C 390.19671 476.40849 399.79845 479.54372 408.375 484.84375 C 416.18938 485.97745 435.92679 488.5203 436 480.65625 C 430.24761 472.52111 424.60549 464.30701 419.34375 455.84375 C 408.13017 460.24319 388.56135 456.14888 382.125 459.34375 C 382.27228 460.84686 382.63572 462.15359 383 463.4375 C 381.11069 459.79797 378.69181 456.37774 377.03125 456.6875 C 361.3742 453.9234 346.34717 447.6477 333.40625 438.40625 C 333.95097 436.83378 341.0141 433.33977 335.8125 433.21875 z M 459.9375 437.40625 C 455.91272 443.79876 429.96618 448.70788 446 452.375 C 452.61678 454.39811 463.25526 464.58882 460.03125 451 C 460.05735 446.46849 460.035 441.93686 459.9375 437.40625 z M 437.625 450.0625 C 422.24133 454.11091 450.9735 460.30961 456.21875 465.96875 C 458.70779 467.53443 459.80214 466.88647 460.0625 465.4375 C 461.07756 471.13019 470.98483 471.94867 469.59375 466.125 C 466.83291 464.13752 463.94834 462.30901 460.90625 460.78125 C 460.33946 461.82672 460.13168 462.74397 460 463.625 C 459.3294 460.29859 456.23053 455.72893 452.15625 456.3125 C 447.56616 453.67038 442.47303 452.14714 437.625 450.0625 z M 339.4375 451.78125 C 342.65985 465.89067 354.28123 474.88015 367 480.34375 C 378.79215 488.22631 402.05158 492.71391 409.84375 487.25 C 403.27539 485.0469 381.99004 480.01687 384.78125 473.40625 C 369.64881 466.30682 352.26292 463.15842 339.4375 451.78125 z M 429.40625 453.125 C 411.11353 454.49342 433.47962 471.15447 436.84375 480.125 C 441.85375 484.1038 460.37354 477.25142 459.78125 469.15625 C 449.84947 463.45571 439.67523 458.18845 429.40625 453.125 z M 460.75 469.75 C 458.12965 477.51848 468.29177 470.19001 460.75 469.75 z M 385.96875 473.9375 C 382.84881 477.63254 407.30322 487.16553 404.5625 483.53125 C 398.42784 480.21436 392.38209 476.70339 385.96875 473.9375 z M 409.75 485.90625 C 414.42491 490.91328 425.19661 485.86685 413.28125 486.1875 L 411.75 486.03125 L 409.75 485.90625 z "
       style="fill:#ffffff;fill-opacity:1;stroke:none"
       id="path3828"
       d="m 403.9375,206.84375 c -2.26691,-0.0241 -4.57002,0.18508 -6.96875,0.59375 a 4.0004,4.0004 0 0 0 -0.15625,0.0312 4.0004,4.0004 0 0 0 -0.84375,-0.0937 c -17.48249,-0.002 -34.95354,3.2285 -51.28125,9.5 a 4.0004,4.0004 0 0 0 -0.59375,0.28125 4.0004,4.0004 0 0 0 -0.15625,0.0312 c -5.84778,1.64055 -13.2781,4.5041 -18.25,9.25 -0.47507,0.45348 -0.94363,0.95115 -1.375,1.46875 a 4.0004,4.0004 0 0 0 -2.6875,0.3125 c -2.81492,1.40308 -5.20548,2.73339 -7.09375,4.625 -0.41961,0.42036 -0.87135,0.90752 -1.25,1.5 a 4.0004,4.0004 0 0 0 -1.9375,0.75 c -24.7743,18.20722 -43.49598,44.4463 -52.28125,73.96875 a 4.0004,4.0004 0 0 0 0.0312,2.375 c -2.40065,3.29487 -3.39012,7.21747 -3.96875,11.15625 -1.16136,7.90556 -0.71114,16.58524 -1.875,21.1875 a 4.0004,4.0004 0 0 0 -0.125,0.96875 c -0.0394,14.25253 0.0695,30.14292 5.96875,44.28125 -0.29953,0.7025 -0.61087,1.41555 -0.59375,2.375 0.0211,1.18523 0.62936,2.66304 1.59375,3.53125 0.52671,0.47418 1.02844,0.75848 1.53125,0.96875 0.90693,5.93702 3.18714,12.71201 6.375,19.125 3.36393,6.76717 7.51745,12.93573 12.6875,16.71875 -0.098,0.45678 -0.27745,0.89155 -0.28125,1.375 -0.031,3.94461 2.61209,6.85729 6.65625,9.875 3.39072,3.2542 7.98635,8.84059 12.84375,13.59375 4.14651,4.05752 8.56244,7.83532 13.90625,8.53125 0.001,0.10546 -0.0344,0.20681 -0.0312,0.3125 a 4.0004,4.0004 0 0 0 1.75,3.1875 c 20.26115,13.86357 44.13983,22.28306 68.59375,24.28125 a 4.0004,4.0004 0 0 0 2.5625,-0.71875 c 0.8545,0.17718 1.71196,0.4159 2.5625,0.5625 8.12566,1.40058 15.75337,1.66718 21.5,-1.5625 0.86752,0.33892 1.73865,0.64996 2.5625,0.78125 2.13385,0.34004 3.9805,0.1937 5.6875,-0.375 0.73094,-0.24352 1.53672,-0.54612 2.46875,-1.625 1.27237,0.0352 2.49511,0.19983 3.75,0.15625 3.22055,-0.11183 6.29533,-0.45691 9.09375,-1.65625 1.52864,-0.65514 3.03565,-1.85313 4.125,-3.375 1.48294,0.27906 3.01225,0.2558 4.53125,0.125 2.97199,-0.25592 6.079,-1.10592 9.03125,-2.375 2.95225,-1.26908 5.738,-2.94173 7.96875,-5.15625 0.14426,-0.14321 0.23453,-0.35006 0.375,-0.5 0.70861,0.13984 1.39357,0.12515 1.9375,0.0312 1.12293,-0.19385 1.92711,-0.63043 2.65625,-1.15625 0.72914,-0.52582 1.37471,-1.14004 1.90625,-2.0625 0.004,-0.007 -0.004,-0.0239 0,-0.0312 1.57673,-0.0883 3.19826,-0.44318 4.625,-1.6875 0.92248,-0.80453 1.58862,-1.93753 1.9375,-3.1875 0.89506,-0.10107 1.80628,-0.27242 2.71875,-0.53125 A 4.0004,4.0004 0 0 0 477.3125,468 c 13.6652,-9.46494 25.6602,-21.31226 35.3125,-34.84375 A 4.0004,4.0004 0 0 0 513.375,431 c 1.9378,-1.41005 3.53819,-3.15344 4.75,-5.0625 1.3859,-2.18332 2.36785,-4.47647 2.75,-6.84375 0.13588,-0.84175 0.13895,-1.72805 0.0312,-2.65625 2.32572,-1.58616 4.08063,-3.8211 5.4375,-6.1875 3.25125,-5.67023 4.44804,-12.37353 5,-17.625 0.0234,-0.0163 0.0713,-0.0147 0.0937,-0.0312 0.85679,-0.62949 1.27376,-1.28442 1.625,-1.875 1.40497,-2.36231 1.82364,-4.80364 2.375,-7.6875 0.55136,-2.88386 0.97439,-6.00836 1.34375,-8.53125 0.18468,-1.26145 0.35748,-2.34638 0.5,-3.15625 0.14252,-0.80987 0.45076,-1.60056 0.15625,-0.9375 a 4.0004,4.0004 0 0 0 0.21875,-2.59375 4.0004,4.0004 0 0 0 0.40625,-1.375 l 0.1875,-1.65625 a 4.0004,4.0004 0 0 0 -0.0312,-1.1875 4.0004,4.0004 0 0 0 0,-0.0312 c 0.15042,-0.33399 0.35519,-0.64989 0.46875,-1 0.84423,-2.60285 0.22097,-5.14385 -0.8125,-7.34375 0.37262,-0.38335 0.83728,-0.73751 1.03125,-1.15625 1.31268,-2.83372 0.7224,-5.00194 -0.0312,-8.375 -0.1424,-4.57039 -0.47835,-9.111 -1.0625,-13.65625 A 4.0004,4.0004 0 0 0 536.71875,329.75 c 0.20697,-6.38183 -1.38055,-12.89645 -3.34375,-19.09375 a 4.0004,4.0004 0 0 0 -0.90625,-1.53125 4.0004,4.0004 0 0 0 -0.125,-1.90625 c -3.92892,-12.47303 -9.59063,-24.39046 -16.78125,-35.3125 a 4.0004,4.0004 0 0 0 -0.4375,-0.53125 4.0004,4.0004 0 0 0 -0.34375,-0.625 c -3.21303,-4.78125 -6.70289,-9.39051 -10.46875,-13.75 a 4.0004,4.0004 0 0 0 -1.4375,-1.03125 c -0.13423,-0.59281 -0.31375,-1.17993 -0.59375,-1.71875 -1.06668,-2.05264 -2.87993,-3.55308 -5.15625,-5 -0.0208,-0.0207 -0.0417,-0.0418 -0.0625,-0.0625 -4.03245,-4.02756 -8.31449,-7.83801 -12.8125,-11.375 a 4.0004,4.0004 0 0 0 -2.65625,-0.84375 c -0.70589,-1.20813 -1.6873,-2.23509 -2.65625,-3.125 -1.93789,-1.77983 -4.30276,-3.29625 -6.84375,-4.78125 -5.08197,-2.96999 -10.94002,-5.71108 -14.125,-7.59375 a 4.0004,4.0004 0 0 0 -0.3125,-0.15625 c -6.86506,-3.28351 -13.9898,-6.01721 -21.28125,-8.15625 A 4.0004,4.0004 0 0 0 435,213 c -0.0836,-0.068 -0.16652,-0.19203 -0.25,-0.25 -1.18375,-0.82194 -2.24429,-1.11159 -3.28125,-1.34375 -2.07391,-0.46432 -4.19777,-0.58785 -6.1875,-0.8125 -1.98973,-0.22465 -3.80867,-0.57857 -4.6875,-0.96875 A 4.0004,4.0004 0 0 0 416.6875,210 c -3.73115,-1.96203 -8.03984,-3.10611 -12.75,-3.15625 z m -10.65625,39.34375 c 2.47358,-0.18612 4.76004,-0.16508 6.8125,0.21875 a 4.0004,4.0004 0 0 0 1.5,0 c 1.19709,-0.22865 3.70992,0.0101 6.5,0.59375 2.79008,0.58364 5.84003,1.40751 8.875,1.8125 1.87268,0.24989 3.92874,0.35526 5.90625,-0.15625 0.0453,0.0774 0.0412,0.13719 0.0937,0.21875 0.35824,0.55609 0.90472,1.3657 2.3125,1.875 1.19994,0.4341 2.68078,0.0395 3.65625,-0.5 0.71851,0.72258 1.34787,1.53048 2.21875,2.125 a 4.0004,4.0004 0 0 0 0.0937,0.0625 c 4.30852,2.74191 10.91601,4.56649 15.96875,6.9375 2.52637,1.1855 4.52271,2.53119 5.15625,3.25 0.15838,0.1797 0.10203,0.0836 0.125,0.125 l -18.84375,18.84375 a 4.0004,4.0004 0 0 0 -0.75,1.0625 4.0004,4.0004 0 0 0 -1.75,1.71875 4.0004,4.0004 0 0 0 -1.625,1.59375 4.0004,4.0004 0 0 0 -0.9375,0.6875 l -12.1875,12.1875 a 4.0004,4.0004 0 0 0 -0.46875,0.5625 4.0004,4.0004 0 0 0 -0.0312,0.0625 4.0004,4.0004 0 0 0 -0.46875,0.34375 l -27.125,27.125 a 4.0004,4.0004 0 0 0 -0.375,0.46875 4.0004,4.0004 0 0 0 -0.40625,0.3125 l -21.6875,21.6875 a 4.0004,4.0004 0 0 0 -0.34375,0.4375 4.0004,4.0004 0 0 0 -0.0312,0 4.0004,4.0004 0 0 0 -0.40625,0.34375 l -11.28125,11.28125 a 4.0004,4.0004 0 0 0 -0.4375,0.53125 4.0004,4.0004 0 0 0 -0.0625,0.0625 4.0004,4.0004 0 0 0 -0.40625,0.3125 l -18.8125,18.8125 a 4.0004,4.0004 0 0 0 -0.3125,0.40625 4.0004,4.0004 0 0 0 -0.0625,0.0312 4.0004,4.0004 0 0 0 -0.3125,0.25 l -24.75,24.75 c -0.37236,-0.63616 -0.65555,-0.92343 -1.03125,-1.625 -1.2118,-2.26288 -2.41168,-4.69124 -3.84375,-6.78125 -0.71603,-1.045 -1.48319,-2.02222 -2.6875,-2.90625 -0.1197,-0.0879 -0.33071,-0.13502 -0.46875,-0.21875 0.15796,-0.92989 0.36423,-1.84967 0.3125,-2.875 -0.15174,-3.00757 -1.45966,-6.1298 -3.9375,-9.09375 a 4.0004,4.0004 0 0 0 -0.0312,-0.0312 c 0.73125,-3.1513 -0.30112,-6.50098 -2.5,-10.15625 0.0576,-1.31611 0.0114,-2.59446 -0.4375,-3.8125 -0.40199,-1.09064 -1.17195,-2.00071 -2,-2.75 0.52458,-0.94354 1.02348,-1.9054 1.28125,-3.03125 0.54237,-2.36889 0.23269,-5.15368 -1.09375,-7.6875 -0.85467,-16.62484 2.28089,-33.46794 9.21875,-48.59375 a 4.0004,4.0004 0 0 0 0.21875,-2.71875 c 3.38052,-2.89529 6.02318,-6.8711 7.90625,-11.75 0.005,-0.007 -0.005,-0.0242 0,-0.0312 6.31139,-9.46434 14.20723,-17.83911 23.25,-24.75 a 4.0004,4.0004 0 0 0 1.15625,-1.4375 c 0.4211,-0.16131 0.82833,-0.372 1.25,-0.53125 a 4.0004,4.0004 0 0 0 2,-1.65625 c 3.01633,-0.10364 5.44228,-1.93412 8,-4.5625 1.73532,-0.68961 3.34672,-1.33053 4.65625,-2.09375 1.39354,-0.81218 2.8598,-1.59866 3.6875,-3.78125 3.46952,0.17008 6.92477,-0.0884 10,-1.8125 0.79001,-0.4429 1.50755,-1.03323 2.1875,-1.65625 0.38493,0.0874 0.77539,0.16369 1.125,0.1875 1.66935,0.11371 3.157,-0.0373 4.90625,-1.4375 0.31792,-0.25448 0.641,-0.65687 0.9375,-1.0625 4.30173,0.48424 8.62389,-0.19302 12.78125,-0.8125 2.69108,-0.40099 5.33892,-0.78263 7.8125,-0.96875 z m 90.09375,47.59375 a 4.0004,4.0004 0 0 0 0.4375,0.375 c 0.53073,0.39401 1.80665,2.16581 2.90625,4.59375 1.0996,2.42794 2.16029,5.4116 3.28125,8.21875 1.12096,2.80715 2.1313,5.42219 4.21875,7.625 0.1083,0.11429 0.28623,0.19914 0.40625,0.3125 -0.0131,0.0427 -0.0509,0.0825 -0.0625,0.125 -0.66532,2.43305 0.10212,4.16439 1.1875,5.59375 0.11266,0.14837 0.27763,0.2897 0.40625,0.4375 -0.35835,3.24545 0.41679,6.81826 2.3125,10.625 l 0.0312,-0.0312 c 0.24972,0.97955 0.50364,1.93689 0.9375,2.8125 a 4.0004,4.0004 0 0 0 -0.34375,2.125 c 0.39466,3.91655 -0.23587,8.21986 1.4375,12.53125 0.24228,0.62424 0.8206,1.20349 1.28125,1.8125 -0.74215,0.84646 -1.51375,1.68371 -2,2.78125 -1.3221,2.98419 -1.41272,6.55148 -0.53125,10.65625 a 4.0004,4.0004 0 0 0 0.0312,0.125 4.0004,4.0004 0 0 0 -0.46875,1.8125 c -0.0173,1.31738 -0.57915,3.87143 -1.3125,6.46875 -0.73335,2.59732 -1.5839,5.28324 -2.0625,7.75 -0.2393,1.23338 -0.46597,2.37588 -0.25,3.875 0.0617,0.42857 0.36312,0.96729 0.5625,1.46875 -0.79527,0.80845 -1.71945,1.58279 -2.40625,2.40625 -1.63231,1.95712 -2.95701,3.93458 -3.71875,6.15625 -0.49285,1.43741 -0.63307,3.23115 -0.1875,4.9375 -1.67393,1.67083 -3.2872,3.42973 -4.75,5.375 -0.0632,0.084 -0.12481,0.1654 -0.1875,0.25 -1.128,1.32423 -2.00433,2.57282 -2.375,4.375 -0.0663,0.32225 0.11116,0.70704 0.125,1.0625 a 4.0004,4.0004 0 0 0 -1.875,0.90625 c -0.92258,0.80415 -1.66793,1.70981 -2.1875,2.9375 -0.44626,0.34534 -0.89757,0.64904 -1.40625,1.625 -0.22125,0.4245 -0.40886,1.09526 -0.4375,1.875 -6.35555,3.90231 -11.98714,9.93003 -16.03125,15.65625 a 4.0004,4.0004 0 0 0 -3.78125,1.84375 c -0.0967,0.15364 -2.03697,1.77581 -4.59375,3.09375 -2.55678,1.31794 -5.64547,2.63952 -8.3125,3.96875 -1.33352,0.66461 -2.55875,1.31621 -3.6875,2.125 -0.60508,0.43356 -1.2358,0.9355 -1.8125,1.625 a 4.0004,4.0004 0 0 0 -1.5625,0.0937 c -2.19262,0.57702 -3.81984,1.13154 -5.375,2.4375 -0.21779,0.18289 -0.41404,0.45318 -0.625,0.6875 a 4.0004,4.0004 0 0 0 -1.5,-0.1875 c -2.61789,0.19584 -4.73106,0.64607 -6.625,1.65625 -0.60786,0.32422 -1.10278,0.85807 -1.625,1.34375 a 4.0004,4.0004 0 0 0 -2.96875,0 c -4.47759,1.7567 -11.83546,1.97992 -18.875,1.90625 -3.51977,-0.0368 -6.96792,-0.11264 -10.09375,0.0312 -2.43437,0.11206 -4.63785,0.43789 -6.75,1.125 -0.46056,-0.48274 -0.88402,-0.98627 -1.5,-1.40625 -0.7044,-0.48027 -1.74875,-0.82006 -2.9375,-0.9375 l 0,-0.0937 c -13.45585,-2.3755 -26.35495,-7.57954 -37.84375,-14.96875 0.28376,-0.27821 0.56317,-0.53025 0.875,-0.96875 0.0757,-0.10651 0.1631,-0.30524 0.25,-0.4375 a 4.0004,4.0004 0 0 0 0.5625,-0.4375 l 21.34375,-21.34375 a 4.0004,4.0004 0 0 0 0.40625,-0.5 4.0004,4.0004 0 0 0 0.40625,-0.3125 l 13.3125,-13.3125 a 4.0004,4.0004 0 0 0 1.03125,-1.78125 c 0.52123,-0.32024 0.96153,-0.52381 1.5625,-0.9375 a 4.0004,4.0004 0 0 0 0.65625,-0.5625 c 1.03471,-1.11239 2.13826,-2.08158 3.21875,-3.09375 1.08049,-1.01217 2.29519,-1.95038 3.0625,-4.0625 0.0136,-0.0374 0.0184,-0.0866 0.0312,-0.125 0.48741,-0.19985 1.04425,-0.34483 1.4375,-0.59375 1.50253,-0.95106 2.57125,-2.11208 3.59375,-3.25 2.04499,-2.27585 4.01528,-4.59781 4.8125,-5.125 a 4.0004,4.0004 0 0 0 0.34375,-0.28125 c 2.45433,-2.05716 5.13351,-4.29227 6.90625,-7.5 a 4.0004,4.0004 0 0 0 1.625,-0.96875 L 426.375,351.125 a 4.0004,4.0004 0 0 0 0.71875,-1.0625 4.0004,4.0004 0 0 0 1.03125,-0.6875 l 37.46875,-37.46875 a 4.0004,4.0004 0 0 0 0.59375,-0.78125 c 0.32336,-0.2026 0.61851,-0.39211 0.84375,-0.59375 0.30851,-0.27619 0.60441,-0.55552 0.90625,-0.96875 0.17687,-0.24214 0.36956,-0.56407 0.5625,-1.03125 0.24624,-0.14629 0.58118,-0.21075 0.8125,-0.375 0.81306,-0.57731 1.54561,-1.26435 2.1875,-2.1875 0.30187,-0.43414 0.61902,-0.94592 0.84375,-1.5625 2.0691,-0.79363 3.73137,-2.5124 5.34375,-4.65625 1.40246,-0.93945 2.3877,-2.02565 3.28125,-3.09375 0.91561,-1.09448 1.70242,-2.06436 2.40625,-2.875 z" />
    <path
       style="fill:#d40000;fill-opacity:1;stroke:none"
       d="m 395.96875,211.375 c -16.9913,-0.002 -33.98072,3.12573 -49.84375,9.21875 8.78831,3.57115 17.70164,22.10314 24.49192,17.54518 7.67549,-9.58615 15.69998,-19.09259 25.35183,-26.76393 z m 1.65625,0 c -10.01234,8.95566 -24.09687,20.56529 -27.55392,32.02883 8.60767,2.61079 20.64911,-2.81999 30.7822,-0.92502 9.0784,-1.73398 27.42892,10.16064 23.77172,-6.29131 2.40939,-17.83883 -9.46153,-27.80048 -27,-24.8125 z m 21.34375,1.90625 c 4.96013,5.31693 6.22602,23.66188 10.63908,8.99565 10.25616,-9.50413 -4.08658,-6.08649 -10.63908,-8.99565 z M 435.25,217 c -10.06992,7.2464 -10.9449,25.84493 -1.82948,32.06773 6.30498,4.01244 27.56501,8.43984 22.39339,16.05586 -6.43797,6.43797 -12.87594,12.87594 -19.31391,19.31391 8.90449,10.02078 27.40963,3.04892 31.9756,-7.11951 3.27087,-12.11096 5.11179,-24.88526 10.1494,-36.34924 0.3955,-5.32862 -15.62474,-11.87043 -22.69505,-16.04976 C 449.26377,221.7306 442.34058,219.08011 435.25,217 z m -90.21875,4.03125 c -10.85971,3.04661 -28.67683,11.84901 -14.08195,21.6433 10.78911,5.55887 33.63637,14.18947 35.36519,-2.3484 -6.41383,-6.23144 -13.64007,-13.79381 -21.28324,-19.2949 z m -21.625,10.78125 c -7.14878,3.56327 -11.13907,7.19786 -0.55066,8.06365 8.71414,4.69878 0.57271,-4.89988 0.55066,-8.06365 z m 102.65625,1.8125 c -1.95131,4.6746 0.0368,19.79585 2.00418,10.29723 -0.55121,-3.45362 -1.19264,-6.89463 -2.00418,-10.29723 z m -112.34375,4.6875 c -24.06846,17.68848 -42.28596,43.25324 -50.8125,71.90625 14.30149,-0.30789 7.83828,-23.53725 23.34738,-26.76705 15.60897,-7.6121 31.30143,-15.22966 47.52762,-21.35795 -3.35288,-11.97926 -4.74653,-23.81563 -20.0625,-23.78125 z m 168.0625,2.65625 c -8.34355,6.01388 -6.92098,21.17444 -10.99351,30.87414 -6.88176,17.0222 13.22223,-3.57694 19.64001,-5.90811 7.27591,-3.85231 13.39153,-8.21168 3.8535,-13.84103 -3.94643,-3.94612 -8.11251,-7.67492 -12.5,-11.125 z m -153.125,1.90625 c 3.8844,7.99476 3.40699,25.14399 14.34416,13.38004 7.99999,-3.0758 10.28604,-5.4748 0.56261,-7.64987 -4.96486,-1.92061 -9.93893,-3.81728 -14.90677,-5.73017 z m 39.625,0.0312 c -7.18017,4.72794 3.73185,4.4205 0.96777,1.13322 l -0.96777,-1.13322 z m 133,16.71875 c -9.99428,9.72588 -27.71152,13.72743 -33.55082,25.96662 -4.807,8.57139 -0.60763,22.31419 7.27327,11.21718 3.72523,-1.90569 8.3048,-12.9274 11.19863,-5.86059 6.5074,4.83102 8.45001,26.9432 15.23517,20.95804 3.18012,-13.02129 6.87176,-25.91126 10.03125,-38.9375 -3.12317,-4.64753 -6.52712,-9.10636 -10.1875,-13.34375 z m -170.9375,5 c -15.96489,5.9042 -31.05835,13.83333 -46.46875,21 -7.83466,4.09319 -19.59119,27.75983 -3.24692,21.03249 12.87884,0.48266 21.19931,-3.99039 25.54839,-16.26682 6.56153,-9.84475 14.76794,-18.58227 24.16728,-25.76567 z m 181.875,9.46875 c -3.21308,13.17948 -6.95425,26.22362 -10.15625,39.40625 7.53646,-3.66539 24.14986,-0.19923 26.45446,-5.08745 -3.81702,-12.11778 -9.31162,-23.70667 -16.29821,-34.3188 z m -44.78125,8.0313 c -9.0849,8.71166 -24.10707,9.9956 -32.73693,4.11193 4.85003,5.02895 18.89924,8.19386 27.19078,12.52533 5.09545,1.48828 3.13822,-12.45937 5.54615,-16.63726 z m -34.40625,5.78125 c -3.4377,11.05305 1.27045,17.31984 12.88554,15.54906 6.46885,2.37947 26.98961,2.16899 13.02076,-4.83031 -8.61993,-3.61034 -17.28618,-7.10889 -25.9063,-10.71875 z M 431.4375,289.5 c -4.0625,4.0625 -8.125,8.125 -12.1875,12.1875 8.71415,1.47182 15.89012,1.0761 12.3229,-9.64702 l -0.13545,-2.54048 5e-5,0 z m 33.53125,11.53125 c -4.94185,10.5942 10.38293,-0.28712 0,0 z m -46.6875,1.625 c -9.04167,9.04167 -18.08333,18.08333 -27.125,27.125 3.09161,13.36932 7.48387,26.39274 11.3125,39.5625 7.02083,-7.02083 14.04167,-14.04167 21.0625,-21.0625 5.76079,-14.28829 8.61587,-29.68679 8.28125,-45.09375 -4.50552,-0.27978 -9.01884,-0.42045 -13.53125,-0.53125 z M 432.8125,303.25 c 0.3272,14.7552 -2.24101,29.50484 -7.53125,43.28125 12.48958,-12.48958 24.97917,-24.97917 37.46875,-37.46875 -4.49576,-5.75471 -20.92165,-4.04449 -29.9375,-5.8125 z m -135.03125,2.15625 c -13.22516,1.3071 -31.96764,0.22646 -26.45783,18.59183 1.57839,12.89968 -2.39186,30.39801 9.23908,39.00192 0.57808,10.7736 13.11676,1.45411 7.63119,-6.34228 -1.02987,-17.52554 2.26655,-35.29033 9.58756,-51.25147 z m 166.3125,1.40625 c -1.56822,2.72188 2.31508,-0.75457 0,0 z m -193.28125,2.625 c -15.93488,1.05334 -10.79016,23.79304 -13.70049,35.30135 -0.0415,15.03051 0.14111,31.3892 6.58846,45.01092 7.89122,0.54264 17.63652,-12.28133 26.76828,-16.37477 0.95823,-9.78651 -11.85565,-0.54396 -12.3125,-10.96875 -9.88087,-10.06231 -6.50037,-27.00932 -7.86299,-40.24586 -0.0834,-4.24798 0.11224,-8.49456 0.51924,-12.72289 z m 253.84375,2 c -12.55838,-0.40674 -30.78702,2.01203 -22.59437,18.46351 1.44296,8.7199 16.48326,14.98508 23.80367,14.4753 9.50126,-7.70678 7.5386,-20.37438 3.697,-32.50131 l -2.45095,-0.23397 -2.4553,-0.20353 -5e-5,0 z m -23.9375,3.40625 c -5.79264,-0.008 1.02423,8.96932 0,0 z M 390.375,330.5625 c -7.22917,7.22917 -14.45833,14.45833 -21.6875,21.6875 8.14971,10.33148 2.88166,27.71043 14.37369,34.26518 3.79378,1.112 7.43429,-6.46184 11.16492,-8.92884 5.15872,-4.32392 9.89997,-8.79473 4.98473,-15.66426 -3.16915,-10.38728 -6.39993,-20.76951 -8.83584,-31.35958 z m 143.46875,1.96875 c -3.7526,3.88058 -0.81965,12.64713 -10.0313,13.96875 6.07714,3.4611 14.04184,13.07505 11.09812,-0.27124 -0.13002,-4.57964 -0.48281,-9.15337 -1.06682,-13.69751 z m -30.78125,3.65625 c 0.87926,8.72556 -1.17314,17.78023 10.40625,12.46875 20.81317,-1.87073 -6.96318,-8.04487 -10.40625,-12.46875 z M 522.6875,347 c -10.33848,3.11559 -22.57255,2.22262 -19.49662,16.54635 5.30853,10.32727 18.55693,16.0626 26.21537,3.2974 12.75633,-7.13819 1.42518,-15.59677 -6.71875,-19.84375 z m -154.78125,6.03125 c -3.76042,3.76042 -7.52083,7.52083 -11.28125,11.28125 2.7012,7.72259 -0.66201,25.93234 5.59375,26.5 -2.4579,-7.57016 -5.37247,-24.55891 6.70953,-13.8291 15.4769,14.0031 0.5063,-19.23941 -1.02203,-23.95215 z m 166.375,11.3125 c -8.66283,4.49074 -5.33281,8.1877 -0.17766,1.65715 l 0.17766,-1.65715 z m -178.5625,0.875 c -6.27083,6.27083 -12.54167,12.54167 -18.8125,18.8125 8.52716,7.68474 27.58618,15.24538 20.5375,-3.35319 -0.51882,-5.15912 -1.07116,-10.31536 -1.725,-15.45931 z m 147.125,1.15625 c -0.11117,8.44649 -10.41581,26.22883 3.90124,15.14279 9.85307,-2.99972 8.34909,-7.30703 0.47376,-12.26779 l -2.26915,-1.47511 -2.10585,-1.39989 z m 30.9375,2.40625 c -11.10321,2.53059 -18.39151,11.83838 -6.70957,19.16379 3.95842,8.03067 5.62301,-16.71747 6.70957,-19.16379 z m -10.71875,4.8125 c -8.06611,2.4218 -6.14166,8.05436 0,0 z M 362,374.125 c -2.88602,2.48805 -1.04637,21.2406 6.70537,14.13949 5.94378,0.54836 -3.79045,13.65077 3.26338,4.51671 C 382.21512,381.66603 368.68792,378.37893 362,374.125 z m -71.28125,0.3125 c -5.82626,4.35741 -23.53397,14.91254 -20.48425,16.02884 9.16121,-4.73226 30.33615,-0.38215 20.48425,-16.02884 z m 225.4375,2.90625 c -10.25678,2.66391 -26.57803,17.20979 -22.38342,22.0317 6.64272,-6.18521 22.72162,-14.29221 22.38342,-22.0317 z m 2.375,2.3125 c -8.86702,10.82263 -22.70469,16.84872 -30.76954,27.73273 -8.05666,9.29724 14.33037,2.78805 19.92878,5.75731 14.62892,7.25717 19.18035,-12.71941 19.97545,-22.7247 -2.78842,-3.79358 -5.81532,-7.42418 -9.13469,-10.76534 z m -141.6875,3.6875 c -0.80988,5.78977 -9.91548,18.29321 0.50512,11.11988 4.84871,-5.2127 9.86038,-6.51554 -0.50512,-11.11988 z m -40.625,1.375 c -9.41667,9.41667 -18.83333,18.83333 -28.25,28.25 -5.48751,-5.90651 -9.7603,-24.50424 -14.39087,-8.68947 -6.66968,11.86359 12.42212,19.86232 20.34555,11.77812 13.97076,-7.0717 27.83103,-14.36101 41.63907,-21.7449 -6.84295,-2.19554 -13.83977,-4.85413 -19.34375,-9.59375 z m -42.3125,0.96875 c -7.74569,2.87176 -23.8548,3.4969 -26.54168,8.16632 6.2285,6.22436 19.05329,19.31466 23.83804,17.46328 -0.37801,-10.24588 10.99571,-15.71076 2.70364,-25.6296 z m 75.3125,2.9375 c -10.28034,0.53256 -1.93359,14.14953 0.6562,2.21875 -0.14854,-0.53226 0.49475,-2.21229 -0.6562,-2.21875 z M 262.8125,390.25 c -1.7728,3.57617 4.96914,1.37027 0,0 z m 99.6875,1.65625 c -8.30142,1.69596 5.012,6.45139 0,0 z M 265.21875,393 c 0.92615,11.2544 9.75202,30.65748 18.91305,36.37841 5.93777,-4.04866 28.27886,-7.66763 12.34573,-12.14991 -4.87186,-0.66984 -15.51885,-9.79937 -22.28477,-15.23392 -3.1543,-2.82959 -6.14596,-5.83928 -8.97401,-8.99458 z m 93.46875,0.78125 c -1.51534,0.073 0.66135,0.9762 0,0 z m -1.75,0.9375 c -16.85774,8.77919 -33.37048,18.25769 -50.71875,26.0625 9.963,2.81089 24.07156,15.3116 32.33828,7.6121 6.21627,-9.63633 19.83758,-16.34248 20.41942,-27.98181 -0.91719,-1.65656 1.76877,-6.25988 -2.03895,-5.69279 z m 2.875,0.8125 c -2.72407,9.98979 4.95746,9.24658 4.03125,0.9375 l -1.938,-0.41988 -2.09325,-0.51762 z m 5,1.125 c -0.35286,3.81549 3.75502,-0.58337 0,0 z m 2.71875,0.4375 c -6.24831,9.00696 5.93474,0.66343 0,0 z m 2.6875,0.25 c -1.74839,6.77207 -12.6039,2.57572 -9.34375,13.59375 4.4375,-4.4375 8.875,-8.875 13.3125,-13.3125 l -1.98463,-0.13304 -1.98412,-0.14821 z m -10.9375,9.59375 c -5.89661,8.43706 -21.35049,19.19025 -20.5625,26.15625 7.11458,-7.11458 14.22917,-14.22917 21.34375,-21.34375 l -0.47628,-2.38444 -0.30497,-2.42806 z m 127.1875,6.03125 c -6.74193,4.22855 8.38446,10.67775 15.7117,13.63816 7.7731,9.78073 18.29748,-9.35012 13.76465,-11.46756 -9.76332,-1.42468 -19.63054,-1.79463 -29.47635,-2.1706 z m -3.4375,1.375 c -5.42632,4.72977 7.30735,2.95984 0,0 z m -2.1875,2.90625 c -2.16514,1.70077 3.19758,0.47017 0,0 z m 2.6875,1.40625 c -8.23479,2.89463 -18.22723,13.50289 -22.5366,20.90171 -2.30149,11.20868 0.76819,28.92895 14.04886,25.16182 13.2823,-9.19973 24.94918,-20.72304 34.33149,-33.87603 -8.79763,-3.65847 -17.39419,-7.78853 -25.84375,-12.1875 z m -178.5,2.65625 c -8.66716,5.38074 -30.80298,7.42466 -15.18799,18.79819 7.41959,7.12085 18.0573,22.07181 26.37549,21.29556 4.4976,-9.76494 15.01279,-21.73217 17.04594,-29.02732 -9.8145,-2.77567 -19.10543,-6.53294 -28.23344,-11.06643 z m 30.78125,11.90625 c -6.53646,9.52859 -18.30596,22.54996 -18.02296,32.10182 19.67429,13.46202 42.89344,21.64464 66.64796,23.58568 -14.35371,-6.01712 -30.50901,-11.49982 -40.4375,-24.125 -1.25806,-7.01918 -12.12753,-19.89418 -9.9375,-21.96875 9.49483,17.37547 30.88222,20.56947 47.47456,28.12294 9.57692,6.84364 -0.34091,-15.02719 -4.50183,-14.25102 -15.65705,-2.7641 -30.68806,-9.03672 -43.62898,-18.27817 0.54472,-1.57247 7.60785,-5.06648 2.40625,-5.1875 z M 333,443.25 c 1.95384,4.28852 3.52129,3.48327 0,0 z m 126.9375,-5.84375 c -4.02478,6.39251 -29.97965,11.29441 -13.94583,14.96153 6.61678,2.02311 17.26433,12.22141 14.04032,-1.36741 0.0261,-4.53151 0.003,-9.06351 -0.0945,-13.59412 z M 437.625,450.0625 c -15.38367,4.04841 13.33373,10.25561 18.57898,15.91475 7.69417,4.83986 3.22753,-10.70329 -4.04851,-9.66113 -4.59009,-2.64212 -9.68244,-4.16898 -14.53047,-6.25362 z m -98.1875,1.71875 c 3.22235,14.10942 14.83321,23.09553 27.55198,28.55913 11.79215,7.88256 35.06725,12.37167 42.85942,6.90776 -6.56836,-2.2031 -27.85891,-7.23127 -25.0677,-13.84189 -15.13244,-7.09943 -32.51828,-10.24783 -45.3437,-21.625 z m 89.96875,1.34375 c -18.29272,1.36842 4.06366,18.02092 7.42779,26.99145 5.01,3.9788 23.53945,-2.86503 22.94716,-10.9602 -9.93178,-5.70054 -20.10597,-10.9678 -30.37495,-16.03125 z m -10.0625,2.71875 c -11.21358,4.39944 -30.7824,0.30513 -37.21875,3.5 1.49215,15.22877 14.79592,18.42175 26.25,25.5 7.81438,1.1337 27.55763,3.67752 27.63084,-4.18653 -5.75239,-8.13514 -11.40035,-16.35021 -16.66209,-24.81347 z m 41.5625,4.9375 c -5.28491,9.74828 10.40266,12.50582 8.68905,5.3319 -2.76084,-1.98748 -5.64696,-3.80414 -8.68905,-5.3319 z M 460.75,469.75 c -2.62035,7.76848 7.54177,0.44001 0,0 z m -74.78125,4.1875 c -3.11994,3.69504 21.32986,13.23568 18.58914,9.6014 -6.13466,-3.31689 -12.1758,-6.83551 -18.58914,-9.6014 z M 409.75,485.90625 c 4.67491,5.00703 15.44661,-0.0394 3.53125,0.28125 l -1.53691,-0.14575 -1.99434,-0.1355 z"
       id="path2985"
       inkscape:connector-curvature="0" />
  </g>
</svg>
